<svg xmlns="http://www.w3.org/2000/svg" xmlns:xlink="http://www.w3.org/1999/xlink" width="210mm" height="297mm" viewBox="0 0 210 297"><path d="M62 103l-9-6h-1l-4-2h-1l-4-1-1-1-3-2-1-1-2-2h-1l-4-4-2-1-2-4-1-3-1-11v-5-3l1-4v-2l1-3v-2l2-3v-1-2-1l1-1 1-1c1-2 0 0 2-1l1-1h1s0 0 0 0l2-2h2l3-2s0 0 0 0h7c2 0 6-1 8 1 0 0 0 0 0 0l2 1h1l3 1v1s0 0 0 0l2 1h2v1l1 1v1l1 1v3l1 2s0 0 0 0v0c2-1 0 0 1-2l1-2 1-1v-2l3-1 1-4h1l1-1 2-1 1-2h1l1-2h1l2-2 2-2 5-1v-1l4-1h6l1-1h17l1 1h2s0 0 0 0l1 1h2c3 2-3 0 2 2h1c6-2 1 2 2 3l2 1c4 3-1 0 3 4l2 1 4 3 1 1 1 1v1h1v11l1 3v13l-1 1v1l-1 2-1 2h-1v2l-1 1-2 2s0 0 0 0v2l-1 1c-3 5 1-2-2 2v1l-3 3v1l-2 1v1h-1v1l-1 1-1 1h-1v1l-1 1v1h-2v1l-1 2s0 0 0 0c-2 4 0 0-2 1v2l-1 2v1l1 3 2 4v2l3 4v2l3 4 1 2 2 4 1 2 3 4 1 3 2 4 2 3 4 5 1 1a96 96 0 017 11l1 1 3 4 1 2 2 4 2 3 2 4v2l3 3 1 6h1v3l1 1v8s-1 0 0 0h4l2 1h3s0 0 0 0h5l1 1h2l1 1s0 0 0 0l1 1h1v1l3 2 2 3 4 4 2 2 3 4 2 2 1 3s0 0 0 0l1 2v4l-2 1v1l-1 1v1l-1 1v1l-1 2-1 4-1 1v2l-1 1v2l-1 1v1l-1 1v1s0 0 0 0v2c1 3-3 1-3 1l-3 3h-2-1l-1 2-2 1h-1l-2 1-1 1h-8-3l-1-1-2-1-1-1-1-1-2-1-5-2-1-1-3-3-3-3h-1s0 0 0 0l-1-2v-1 7l-2 2v21l-2 1-1 3s0 0 0 0l-1 1h-1l-1 2s0 0 0 0v1l-2 1v1h-1s0 0 0 0h-16l-5-1-1-2h-1l-1-2h-1v-1h-1l-2-2v-1l-1-1-2-1-3-4c-1 0 0 0 0 0h-1l-3-4-1-1v-1c-2-3 0 3-1-2v-1-2l-2-2v-3-6-4-1c2-5 0 3 2-4 0 0 0 0 0 0v-3s0 0 0 0l1-2 2-5h3s0-1 0 0c0 0 0 0 0 0v-1l3-3v-1-3l-2-4-3-6v-1l-1-4c0-3 3 5 0-4l-1-1-2-4v-2l-1-3-1-2-1-3v-1l-1-3-1-1-2-3v-2-2l-1-1s0 0 0 0l-1-2-2-3-1-2-1-5-1-3-2-2v-1-2l-3-5v-3s0 0 0 0v-1c-1-3-1-1-2-2l-1-4-1-2-1-2v-1l-1-2v-2l-1-2-1-2h-1v-2l-1-3s0 0 0 0l-1-1v-2l-1-1v-3-3l-1-1v-1-4l-1-2v-3h-1v-1h-5z" id="a" fill="none" stroke="#000" stroke-width=".3" stroke-linecap="butt" stroke-linejoin="miter" stroke-opacity="1"/><use xlink:href="#a" width="100%" height="100%" transform="translate(3 -21)"/><use xlink:href="#a" width="100%" height="100%" transform="translate(-17 -9)"/><use xlink:href="#a" width="100%" height="100%" transform="translate(3 -10)"/><use xlink:href="#a" width="100%" height="100%" transform="translate(6 -8)"/><use xlink:href="#a" width="100%" height="100%" transform="translate(0 -19)"/><use xlink:href="#a" width="100%" height="100%" transform="translate(-3 -7)"/><use xlink:href="#a" width="100%" height="100%" transform="translate(0 -21)"/><use xlink:href="#a" width="100%" height="100%" transform="translate(-11 -8)"/><use xlink:href="#a" width="100%" height="100%" transform="translate(-5 10)"/><use xlink:href="#a" width="100%" height="100%" transform="translate(-29 -11)"/><use xlink:href="#a" width="100%" height="100%" transform="translate(-26 4)"/><use xlink:href="#a" width="100%" height="100%" transform="translate(0 21)"/><use xlink:href="#a" width="100%" height="100%" transform="translate(-21 -5)"/><use xlink:href="#a" width="100%" height="100%" transform="translate(12 -3)"/><use xlink:href="#a" width="100%" height="100%" transform="translate(0 18)"/><use xlink:href="#a" width="100%" height="100%" transform="translate(-10 -1)"/><use xlink:href="#a" width="100%" height="100%" transform="translate(-5 -10)"/><use xlink:href="#a" width="100%" height="100%" transform="translate(6 11)"/><use xlink:href="#a" width="100%" height="100%" transform="translate(11 -1)"/><use xlink:href="#a" width="100%" height="100%" transform="translate(17)"/><use xlink:href="#a" width="100%" height="100%" transform="translate(-17 -35)"/><use xlink:href="#a" width="100%" height="100%" transform="translate(-19 -20)"/><use xlink:href="#a" width="100%" height="100%" transform="translate(17 -6)"/><use xlink:href="#a" width="100%" height="100%" transform="translate(-6 11)"/><use xlink:href="#a" width="100%" height="100%" transform="translate(13 -21)"/><use xlink:href="#a" width="100%" height="100%" transform="translate(-21 -7)"/><use xlink:href="#a" width="100%" height="100%" transform="translate(-13 -31)"/><use xlink:href="#a" width="100%" height="100%" transform="translate(-6 -1)"/><use xlink:href="#a" width="100%" height="100%" transform="translate(-15 -4)"/><use xlink:href="#a" width="100%" height="100%" transform="translate(4 -32)"/><use xlink:href="#a" width="100%" height="100%" transform="translate(-22)"/><use xlink:href="#a" width="100%" height="100%" transform="translate(12 -28)"/><use xlink:href="#a" width="100%" height="100%" transform="translate(-4 -27)"/><use xlink:href="#a" width="100%" height="100%" transform="translate(-4 -25)"/><use xlink:href="#a" width="100%" height="100%" transform="translate(-6 -16)"/><use xlink:href="#a" width="100%" height="100%" transform="translate(18 2)"/><use xlink:href="#a" width="100%" height="100%" transform="translate(-3)"/><use xlink:href="#a" width="100%" height="100%" transform="translate(-23 -22)"/><use xlink:href="#a" width="100%" height="100%" transform="translate(-18 -3)"/><use xlink:href="#a" width="100%" height="100%" transform="translate(-24 -13)"/><use xlink:href="#a" width="100%" height="100%" transform="translate(-25 -25)"/><use xlink:href="#a" width="100%" height="100%" transform="translate(1)"/><use xlink:href="#a" width="100%" height="100%" transform="translate(-19 -26)"/><use xlink:href="#a" width="100%" height="100%" transform="translate(-4 -25)"/></svg>