<?xml version="1.0" encoding="UTF-8" standalone="no"?>
<!-- Created with Inkscape (http://www.inkscape.org/) -->

<svg
   xmlns:dc="http://purl.org/dc/elements/1.1/"
   xmlns:cc="http://creativecommons.org/ns#"
   xmlns:rdf="http://www.w3.org/1999/02/22-rdf-syntax-ns#"
   xmlns:svg="http://www.w3.org/2000/svg"
   xmlns="http://www.w3.org/2000/svg"
   xmlns:sodipodi="http://sodipodi.sourceforge.net/DTD/sodipodi-0.dtd"
   xmlns:inkscape="http://www.inkscape.org/namespaces/inkscape"
   width="210mm"
   height="297mm"
   viewBox="0 0 210 297"
   version="1.1"
   id="svg4083"
   inkscape:version="0.92.5 (2060ec1f9f, 2020-04-08)"
   sodipodi:docname="bone luv.svg">
  <defs
     id="defs4077" />
  <sodipodi:namedview
     id="base"
     pagecolor="#ffffff"
     bordercolor="#666666"
     borderopacity="1.0"
     inkscape:pageopacity="0.0"
     inkscape:pageshadow="2"
     inkscape:zoom="0.35"
     inkscape:cx="-120"
     inkscape:cy="560"
     inkscape:document-units="mm"
     inkscape:current-layer="layer1"
     showgrid="false"
     inkscape:window-width="1848"
     inkscape:window-height="1016"
     inkscape:window-x="72"
     inkscape:window-y="27"
     inkscape:window-maximized="1" />
  <metadata
     id="metadata4080">
    <rdf:RDF>
      <cc:Work
         rdf:about="">
        <dc:format>image/svg+xml</dc:format>
        <dc:type
           rdf:resource="http://purl.org/dc/dcmitype/StillImage" />
        <dc:title></dc:title>
      </cc:Work>
    </rdf:RDF>
  </metadata>
  <g
     inkscape:label="Layer 1"
     inkscape:groupmode="layer"
     id="layer1">
    <path
       style="fill:#44aa00;stroke:#44aa00;stroke-width:0.26458332px;stroke-linecap:butt;stroke-linejoin:miter;stroke-opacity:1"
       d="m 92.982141,187.3869 c -0.956212,-1.35673 0.478108,-3.10139 0,-4.53571 -0.755951,-2.26786 -1.511903,-2.64584 -2.267857,-4.53572 -0.251984,-0.75595 -0.503968,-1.5119 -0.755952,-2.26785 0,-0.25199 0.07968,-0.5169 0,-0.75595 -0.429114,-1.28735 -1.035439,-2.50919 -1.511906,-3.77977 -0.279789,-0.74611 -0.47616,-1.52175 -0.755951,-2.26786 -0.476467,-1.27057 -0.960784,-2.53974 -1.511904,-3.77976 -0.457681,-1.02978 -1.126794,-1.96475 -1.511905,-3.0238 -0.626917,-1.72403 -1.029224,-3.52184 -1.511906,-5.29167 -0.273368,-1.00235 -0.346686,-2.06886 -0.755952,-3.02381 -1.109776,-2.58948 -2.650548,-4.97846 -3.779761,-7.55952 -0.730636,-1.67003 -3.716964,-11.85975 -3.779763,-12.09524 -3.308035,-12.40514 3.313409,8.9511 -2.267857,-10.58334 -0.37279,-1.30476 -1.182789,-2.4633 -1.511904,-3.77976 -0.432149,-1.72859 -0.437216,-3.53861 -0.755951,-5.29166 -0.185857,-1.0222 -0.552196,-2.00503 -0.755955,-3.02381 -0.300598,-1.503 -0.503967,-3.02382 -0.755951,-4.53572 -0.630497,-3.78298 -1.025546,-5.93651 -1.511906,-9.82738 -0.03125,-0.250039 0,-0.503968 0,-0.755952 -0.251984,-1.511905 -0.539187,-3.018361 -0.755952,-4.535715 -0.03564,-0.249451 0.04143,-0.507396 0,-0.755951 -0.21123,-1.267391 -0.544721,-2.512372 -0.755951,-3.779764 -0.273744,-1.642456 0.269991,-3.671715 0,-5.291666 -0.170805,-1.024821 -0.552196,-2.005029 -0.755952,-3.023809 -0.04942,-0.247089 0,-0.503968 0,-0.755952 0,-1.007935 0.142542,-2.026004 0,-3.023809 -0.112691,-0.788837 -0.643263,-1.479023 -0.755954,-2.267858 -0.142544,-0.997807 0,-2.015873 0,-3.023809 0,-1.763889 0,-3.527779 0,-5.291666 0,-4.283731 0,-8.56746 0,-12.851191 0,-1.76389 0,-3.527777 0,-5.291667 0,-0.251983 -0.239054,-0.676267 0,-0.755951 0.516715,-0.172239 4.420957,0 5.291666,0 1.511906,0 3.02381,0 4.535715,0 1.007936,0 2.015874,0 3.02381,0 0.503967,0 1.022984,-0.122232 1.511905,0 1.546104,0.386524 2.979976,1.166185 4.535713,1.511903 0.737952,0.163989 1.550699,-0.239054 2.267857,0 1.603619,0.53454 2.947125,1.690188 4.535715,2.267858 1.207514,0.439097 2.572248,0.316857 3.779761,0.755951 1.58859,0.57767 2.916642,1.782136 4.535715,2.267858 0.965427,0.289628 2.023662,-0.125019 3.023812,0 1.03093,0.128868 2.02482,0.470529 3.02381,0.755954 1.83933,0.525521 4.45002,1.583171 6.04762,2.267855 2.64583,1.13393 0.75595,0.755954 4.53571,2.267857 0.23396,0.09359 0.50886,-0.04942 0.75595,0 1.01878,0.203756 2.03817,0.427406 3.02381,0.755955 2.30972,0.769905 2.74237,2.584198 4.53572,3.77976 0.93764,0.625097 2.05749,0.932117 3.02381,1.511906 0.30557,0.183343 0.43721,0.596583 0.75595,0.755952 0.71272,0.356359 1.55514,0.399592 2.26786,0.755951 0.31873,0.15937 0.50396,0.503968 0.75595,0.755952 1.00794,1.007938 2.01587,2.015874 3.02381,3.023812 1.25992,1.259919 2.74411,2.329852 3.77976,3.77976 0.46316,0.648418 0.50397,1.511906 0.75595,2.267858 0.50397,1.511903 0.95232,3.043497 1.51191,4.535715 0.19784,0.527576 0.57777,0.977366 0.75595,1.511903 0.32855,0.985642 0.4274,2.038168 0.75595,3.023809 0.17818,0.534541 0.64545,0.959393 0.75595,1.511906 0.15152,0.757587 0,3.551351 0,4.535715 0,1.318104 0.31654,2.707272 -0.75595,3.779761 -0.17818,0.178178 -0.53057,-0.112691 -0.75595,0 -0.31874,0.159369 -0.50397,0.503968 -0.75595,0.755952 -0.25199,0.251983 -0.50397,0.503967 -0.75596,0.755954 -0.59046,0.590462 -1.83298,1.615543 -2.26785,2.267855 -0.31255,0.468823 -0.35753,1.113483 -0.75596,1.511905 -0.39842,0.398423 -1.04308,0.443403 -1.5119,0.755953 -0.86683,0.57789 -1.91349,2.55132 -2.26786,3.02381 -0.21381,0.28509 -0.55828,0.45944 -0.75595,0.75595 -0.31255,0.46882 -0.44341,1.04309 -0.75595,1.51191 -0.19768,0.29651 -0.55828,0.45944 -0.75595,0.75595 -0.31255,0.46882 -0.44341,1.04308 -0.75596,1.5119 -0.19767,0.29651 -0.55828,0.45945 -0.75595,0.75595 -0.31255,0.46883 -0.57777,0.97737 -0.75595,1.51191 -0.0797,0.23905 0.17818,0.57777 0,0.75595 -0.17818,0.17818 -0.53057,-0.11269 -0.75595,0 -0.93414,0.46707 -0.75596,0.72986 -0.75596,1.51191 0,0.50397 0.15937,1.0338 0,1.5119 -0.86864,2.60593 -0.75595,0.55998 -0.75595,2.26786 0,0.74515 0,2.25706 0,1.5119 0,-1.01306 -0.14217,-4.58082 0,-5.29166 0.1105,-0.55252 0.6193,-0.96528 0.75595,-1.51191 0.12223,-0.48892 -0.15936,-1.0338 0,-1.5119 0.11269,-0.33807 0.59659,-0.43722 0.75596,-0.75596 0.11269,-0.22538 -0.0611,-0.51149 0,-0.75595 0.19326,-0.77305 0.56269,-1.4948 0.75595,-2.26785 0.0611,-0.24446 -0.0797,-0.5169 0,-0.75596 0.73117,-2.19352 0.47399,-0.88397 1.5119,-2.26785 0.54513,-0.72684 1.10559,-1.45524 1.51191,-2.26786 0.11269,-0.22538 -0.0797,-0.516899 0,-0.755953 0.17818,-0.53454 0.50397,-1.007935 0.75595,-1.511905 0.25199,-0.503968 0.35753,-1.113483 0.75595,-1.511904 0.64244,-0.642437 1.62542,-0.869468 2.26786,-1.511905 2.78851,-2.788513 -1.8103,-0.305036 2.26786,-3.02381 0.20966,-0.139776 0.50397,0 0.75595,0 0.75595,-0.503967 1.54102,-0.966779 2.26786,-1.511903 1.557,-1.167757 2.50687,-3.272552 4.53571,-3.779763 0.97784,-0.244459 2.0676,0.318738 3.02381,0 0.33807,-0.112692 0.41788,-0.64326 0.75595,-0.755952 0.68036,-0.226785 1.5875,0.226785 2.26786,0 0.53454,-0.178181 0.97737,-0.577773 1.5119,-0.755951 0.47811,-0.15937 1.00794,0 1.51191,0 1.76389,0 3.52778,0 5.29167,0 1.04615,0 5.26563,-0.195498 6.04761,0 0.77306,0.193262 1.52801,0.460009 2.26786,0.755951 1.18249,0.472996 3.44006,1.610461 4.53572,2.267858 0.77906,0.467439 1.48879,1.044464 2.26785,1.511903 0.48316,0.289896 1.04309,0.443405 1.51191,0.755954 0.68815,0.458769 1.59782,1.932842 2.26786,2.267855 0.45076,0.225383 1.15554,-0.356359 1.5119,0 0.37798,0.377978 -0.37798,1.889882 0,2.267858 0.17818,0.178181 0.57777,-0.178179 0.75595,0 0.17818,0.178181 0,0.503967 0,0.755954 0,1.259919 0,2.519838 0,3.77976 0,0.251984 -0.0494,0.508863 0,0.755953 0.20376,1.01878 0.58515,1.99899 0.75595,3.02381 0.25688,1.54125 -0.6984,5.58724 -0.75595,6.04762 -0.0625,0.50007 0.12223,1.02298 0,1.5119 -0.38652,1.54611 -1.05396,3.00924 -1.5119,4.53572 -0.29855,0.99514 -0.48259,2.02146 -0.75595,3.02381 -0.48269,1.76983 -1.02923,3.52183 -1.51191,5.29166 -0.27337,1.00235 -0.42741,2.03817 -0.75595,3.02381 -0.68083,2.04247 -1.64921,3.98547 -2.26786,6.04762 -0.14481,0.48272 0.19852,1.04869 0,1.51191 -1.22202,2.85138 -2.38856,3.61302 -3.77976,6.04761 -0.83866,1.46765 -1.33021,3.12926 -2.26786,4.53572 -0.69888,1.04832 -1.46127,2.05591 -2.26786,3.02381 -1.22245,1.46695 -4.19347,3.75129 -5.29166,4.53571 -0.4585,0.3275 -1.07905,0.39524 -1.51191,0.75596 -1.09505,0.91254 -1.94153,2.09614 -3.02381,3.0238 -0.98663,0.84569 -5.53791,3.43997 -6.04762,3.77977 -0.2965,0.19767 -0.44654,0.57915 -0.75595,0.75595 -1.46764,0.83865 -3.02381,1.51191 -4.53571,2.26786 -0.50397,0.25198 -0.98433,0.55811 -1.51191,0.75595 -1.49221,0.55958 -3.04349,0.95232 -4.53571,1.5119 -0.52758,0.19785 -0.97013,0.60116 -1.51191,0.75596 -1.23543,0.35298 -2.53325,0.44432 -3.77976,0.75595 -0.77305,0.19326 -1.4948,0.56269 -2.26785,0.75595 -1.24651,0.31163 -2.54433,0.40297 -3.77977,0.75595 -0.54177,0.1548 -1.00793,0.50397 -1.5119,0.75595 -1.51191,0.75596 -3.08624,1.39818 -4.53572,2.26786 -0.77906,0.46744 -1.45523,1.1056 -2.26785,1.51191 -0.71272,0.35636 -1.52801,0.46001 -2.26786,0.75595 -0.52315,0.20926 -0.96527,0.61929 -1.5119,0.75595 -5.3848,1.3462 3.82986,-2.2879 -3.77977,0.75596 -0.50397,0.25198 -1.00793,0.50396 -1.5119,0.75595 -0.25198,0.25198 -0.43722,0.59658 -0.75595,0.75595 -0.22538,0.11269 -0.5169,-0.0797 -0.75596,0 -0.53453,0.17818 -1.00793,0.50397 -1.5119,0.75595 -0.50397,0.25198 -1.11348,0.35753 -1.51191,0.75595 -0.35635,0.35636 0.45077,1.28653 0,1.51191 -0.45076,0.22538 -1.06114,-0.22538 -1.5119,0 -0.26786,0.13393 0.18517,1.9901 0,2.26786 -0.39534,0.59301 -1.00794,1.00793 -1.5119,1.5119 -0.25199,0.25199 -0.596587,0.43721 -0.755956,0.75595 -0.112692,0.22538 0,0.50397 0,0.75595 0,0.25199 0,0.50397 0,0.75596"
       id="path4461"
       inkscape:connector-curvature="0" />
    <path
       style="fill:#ff0000;stroke:#000000;stroke-width:0.26458332px;stroke-linecap:butt;stroke-linejoin:miter;stroke-opacity:1"
       d="m 97.517856,286.41667 c -1.007938,-1.51191 -1.860542,-3.13979 -3.023809,-4.53573 -0.161316,-0.19357 -0.554365,0.15121 -0.755954,0 -0.839946,-0.62995 -2.799824,-2.93981 -3.779761,-3.77976 -1.22505,-1.05005 -2.488972,-2.0557 -3.779761,-3.02381 -3.596446,-2.69732 -2.239102,-0.72718 -6.803572,-5.29167 -1.140907,-1.14088 -2.015874,-2.51984 -3.023809,-3.77976 -2.519841,-2.01586 -5.120936,-3.93417 -7.559524,-6.04761 -1.346483,-1.16695 -2.47717,-2.56401 -3.779761,-3.77976 -2.478352,-2.31313 -5.075282,-4.49678 -7.559524,-6.80357 -3.584892,-3.32883 -5.449652,-5.87636 -9.07143,-9.82738 -7.9195,-8.63946 7.559524,9.23941 -7.559524,-7.55953 -0.607782,-0.67531 -0.944343,-1.5584 -1.511903,-2.26785 -1.45128,-1.8141 -3.213338,-3.38157 -4.535715,-5.29167 -0.962171,-1.3898 -1.429203,-3.06807 -2.267858,-4.53572 -1.179428,-2.064 -2.556695,-4.00917 -3.779761,-6.04761 -0.289896,-0.48316 -0.4764,-1.02269 -0.755951,-1.51191 -0.728983,-1.27572 -1.610764,-2.46557 -2.267858,-3.77976 -0.728015,-1.45603 -1.027489,-3.83842 -1.511905,-5.29167 -0.17818,-0.53454 -0.619295,-0.96527 -0.755952,-1.5119 -0.122231,-0.48892 0.09884,-1.01773 0,-1.51191 -0.156274,-0.78137 -0.599679,-1.48648 -0.755953,-2.26785 -0.09884,-0.49419 0,-1.00794 0,-1.51191 0,-1.5119 0,-3.02381 0,-4.53571 0,-0.75595 0,-1.51191 0,-2.26786 0,-0.75595 -0.183345,-1.53448 0,-2.26786 0.08643,-0.34572 0.596584,-0.43721 0.755953,-0.75595 0.11269,-0.22538 -0.06112,-0.51149 0,-0.75595 0.0984,-0.39363 0.99054,-3.2584 1.511904,-3.77976 0.398422,-0.39843 1.043083,-0.44341 1.511905,-0.75596 1.133927,-0.75595 0.755952,-1.5119 2.267857,-2.26785 0.450763,-0.22539 1.007936,0 1.511904,0 0.755954,0 1.511906,0 2.267857,0 2.607318,0 5.060392,-0.2437 7.559524,0.75595 0.330872,0.13235 0.437216,0.59658 0.755952,0.75595 1.213718,0.60686 2.532504,0.97737 3.779763,1.51191 0.517896,0.22195 1.071923,0.40396 1.511904,0.75595 0.83481,0.66785 1.433049,1.60001 2.267857,2.26785 0.439984,0.35199 1.007938,0.50397 1.511906,0.75596 1.007935,0.50397 1.988018,1.06799 3.023809,1.5119 0.732414,0.31389 1.604843,0.31395 2.267857,0.75595 0.889527,0.59302 1.433047,1.60001 2.267858,2.26786 0.439984,0.35199 1.007935,0.50397 1.511903,0.75596 1.007938,0.50396 2.086166,0.8868 3.023809,1.5119 0.593019,0.39534 0.941732,1.08427 1.511906,1.5119 0.450763,0.33808 1.007936,0.50397 1.511906,0.75596 0.503968,0.25198 0.988751,0.54669 1.511903,0.75595 0.739852,0.29594 1.555139,0.39959 2.267858,0.75595 0.318738,0.15937 0.503968,0.50397 0.755951,0.75595 0.503968,0.50397 1.084273,0.94173 1.511906,1.51191 0.338072,0.45076 0.357529,1.11348 0.755952,1.5119 0.178181,0.17818 0.5169,-0.0797 0.755952,0 1.612034,0.53735 1.793176,1.03723 3.023811,2.26786 0.251984,0.25198 0.643261,0.41788 0.755952,0.75595 0.312952,0.93885 -0.248484,2.78583 0,3.77977 0.136657,0.54662 0.663321,0.95611 0.755952,1.5119 0.165703,0.99422 -0.197673,2.03545 0,3.02381 0.06989,0.34944 0.643262,0.41788 0.755951,0.75595 3.276873,1.03515 0.271254,3.08161 0.755954,4.53571 0.429112,1.28735 0.905047,2.56605 1.511904,3.77977 1.306031,2.61206 1.792832,1.68555 2.267857,4.53571 1.433034,8.5982 -1.406191,-2.70667 0.755952,3.77976 0.138927,0.41678 -0.161621,2.86219 0,3.02381 0.178181,0.17818 0.577773,0.17818 0.755954,0 0.178178,-0.17818 -0.07968,-0.5169 0,-0.75595 0.178178,-0.53454 0.577771,-0.97736 0.755952,-1.5119 0.328546,-0.98565 0.427405,-2.03817 0.755951,-3.02381 0.05342,-0.16025 1.597544,-4.2862 2.267858,-5.29167 0.698878,-1.04832 1.642761,-1.92989 2.267857,-3.02381 0.582412,-1.01922 1.217332,-4.40795 1.511906,-5.29167 0.774674,-2.32402 1.229151,-1.38688 3.023809,-3.77976 0.151191,-0.20159 -0.129646,-0.53988 0,-0.75595 0.648224,-1.08037 1.704404,-1.8969 2.267858,-3.02381 0.22538,-0.45076 -0.279554,-1.09258 0,-1.51191 0.08364,-0.12545 2.714863,-1.28019 3.023809,-1.5119 1.053186,-0.78989 2.070096,-2.0701 3.023806,-3.02381 0.50397,-0.50397 0.91889,-1.11656 1.51191,-1.5119 0.20966,-0.13978 0.50397,0 0.75595,0 0.50397,0 1.0338,0.15936 1.5119,0 0.67615,-0.22538 0.87443,-1.19317 1.51191,-1.51191 0.22538,-0.11269 0.5169,0.0797 0.75595,0 0.53454,-0.17818 0.97737,-0.57777 1.51191,-0.75595 0.23905,-0.0797 0.53057,0.11269 0.75595,0 0.31874,-0.15937 0.50397,-0.50397 0.75595,-0.75595 0.86493,-0.86493 0.89488,-1.05425 2.26786,-1.51191 0.45075,-0.15025 3.8033,0 4.53571,0 0.25199,0 0.57778,0.17818 0.75595,0 0.17819,-0.17818 -0.17817,-0.57777 0,-0.75595 0.10661,-0.10661 2.11279,-0.0775 2.26786,0 0.31874,0.15937 0.50397,0.50397 0.75595,0.75595 0.25199,0.25198 0.50397,0.50397 0.75596,0.75595 0.50397,0.50397 1.19316,0.87443 1.5119,1.51191 0.22538,0.45076 -0.15937,1.0338 0,1.5119 0.11269,0.33808 0.59659,0.43722 0.75595,0.75596 0.11269,0.22538 -0.11269,0.53057 0,0.75595 0.15937,0.31874 0.59659,0.43721 0.75596,0.75595 0.16142,0.32286 0,3.48093 0,3.77976 0,1.25992 0,2.51984 0,3.77977 0,0.75595 0.12427,1.52219 0,2.26785 -0.131,0.786 -0.59968,1.48649 -0.75596,2.26786 -0.0988,0.49418 0.0988,1.01772 0,1.5119 -0.15627,0.78137 -0.59968,1.48649 -0.75595,2.26786 -0.41997,2.09987 0.62996,1.25992 0,3.77976 -0.0864,0.34572 -0.66952,0.41024 -0.75595,0.75595 -0.18335,0.73339 0.18334,1.53448 0,2.26786 -0.0864,0.34572 -0.62361,0.42508 -0.75595,0.75596 -0.38586,0.96464 -0.29132,2.09453 -0.75596,3.0238 -0.11269,0.22538 -0.60476,-0.20158 -0.75595,0 -0.67614,0.90153 -0.93211,2.0575 -1.5119,3.02381 -0.18335,0.30558 -0.59659,0.43722 -0.75596,0.75596 -0.60659,1.21319 -0.63119,2.67887 -1.5119,3.77976 -1.07195,1.33994 -3.23735,3.23734 -4.53571,4.53571 -0.25199,0.25198 -0.54214,0.47087 -0.75596,0.75595 -0.54512,0.72684 -0.86947,1.62543 -1.5119,2.26786 -0.39842,0.39842 -1.00794,0.50397 -1.51191,0.75595 -0.50397,0.25199 -0.97736,0.57777 -1.5119,0.75596 -0.23905,0.0797 -0.57777,-0.17819 -0.75595,0 -0.39842,0.39842 -0.44341,1.04308 -0.75596,1.5119 -0.5815,0.87225 -1.68635,1.3956 -2.26785,2.26786 -0.31255,0.46882 -0.35753,1.11348 -0.75596,1.5119 -0.17817,0.17818 -0.57777,-0.17818 -0.75595,0 -0.17818,0.17818 0.0797,0.5169 0,0.75595 -0.17818,0.53454 -0.41788,1.06115 -0.75595,1.51191 -0.42763,0.57017 -1.11656,0.91889 -1.5119,1.5119 -0.13978,0.20967 0.17818,0.57778 0,0.75596 -0.39843,0.39842 -0.97737,0.57777 -1.51191,0.75595 -0.239052,0.0797 -0.643261,-0.22538 -0.755952,0 -0.22538,0.45076 0,1.00793 0,1.5119 -0.503968,0.50397 -1.11656,0.91889 -1.511903,1.51191 -0.279554,0.41933 0.27955,1.09258 0,1.5119 -0.395346,0.59302 -0.918888,1.11656 -1.511906,1.51191 -1.17307,0.78204 -0.49185,-1.28416 -1.511906,0.75595 -0.112689,0.22538 0.112691,0.53057 0,0.75595 -0.159367,0.31874 -0.596583,0.43722 -0.755952,0.75595 -0.22538,0.45077 0.35636,1.15555 0,1.51191 -0.398422,0.39842 -1.113483,0.35753 -1.511903,0.75595 -0.178181,0.17818 0,0.50397 0,0.75595 0,0.25198 0,0.50397 0,0.75596 0,1.7639 0,3.52777 0,5.29167 0,0.50395 0,1.00793 0,1.51191 0,0.50395 0.22538,1.06113 0,1.5119 -0.112691,0.22538 -0.643263,-0.22539 -0.755954,0 -0.22538,0.45075 0,1.00793 0,1.51189 0,0.75596 0,1.5119 0,2.26787 0,0.75594 -0.239054,1.5507 0,2.26785 0.112691,0.33809 0.596585,0.43723 0.755954,0.75594 0.22538,0.45077 -0.225383,1.06117 0,1.51191 0.159367,0.31874 0.596583,0.43723 0.755952,0.75597 0.136689,0.27337 0,3.25395 0,3.77976 0,0.25199 0,0.50395 0,0.75594 0,0.25199 0.251984,0.75597 0,0.75597 -0.251984,0 0,-0.50398 0,-0.75597"
       id="path4465"
       inkscape:connector-curvature="0" />
    <path
       style="fill:#7137c8;stroke:#000000;stroke-width:0.26458332px;stroke-linecap:butt;stroke-linejoin:miter;stroke-opacity:1"
       d="m 28.72619,139.7619 c -1.007938,-1.5119 -2.122283,-2.95804 -3.023809,-4.53571 -0.125019,-0.21878 0.04143,-0.5074 0,-0.75595 -0.211232,-1.26739 -0.402971,-2.54433 -0.755953,-3.77976 -0.154792,-0.54178 -0.503968,-1.00794 -0.755952,-1.51191 -0.503968,-1.00794 -1.067994,-1.98802 -1.511905,-3.02381 -0.313892,-0.73241 -0.476162,-1.52175 -0.755952,-2.26786 -0.476466,-1.27057 -0.977366,-2.5325 -1.511905,-3.77976 -0.221955,-0.51789 -0.60116,-0.97013 -0.755952,-1.5119 -0.352982,-1.23544 -0.574244,-2.50781 -0.755953,-3.77976 -0.07127,-0.49891 0.176955,-1.04003 0,-1.51191 -0.791367,-2.11031 -2.015873,-4.03174 -3.023809,-6.04762 -0.503968,-1.00794 -1.155546,-1.95473 -1.511905,-3.02381 -0.159369,-0.4781 0.159369,-1.0338 0,-1.5119 -0.356359,-1.06908 -1.116221,-1.96866 -1.511905,-3.023813 -0.364802,-0.972806 -0.427405,-2.038167 -0.755952,-3.023809 -0.17818,-0.53454 -0.619295,-0.965274 -0.755952,-1.511905 -0.122231,-0.488921 0.159368,-1.033799 0,-1.511904 -0.112691,-0.338074 -0.55828,-0.459443 -0.755953,-0.755954 C 10.270785,92.424035 10.079365,91.88492 9.8273808,91.380952 8.6619767,89.050142 7.6208884,86.675073 6.047619,84.577379 4.8271419,82.950078 4.0515645,83.195712 3.0238094,80.797619 1.5705602,77.406703 2.9829805,78.448103 1.5119047,75.505952 1.352536,75.187214 0.86864311,75.088072 0.75595238,74.75 c -0.23905313,-0.717161 0,-1.511906 0,-2.267857 0,-1.76389 0,-3.52778 0,-5.291667 0,-0.522001 -0.11491835,-2.793973 0,-3.023809 0.40631222,-0.812625 1.10559252,-1.455235 1.51190472,-2.267857 0.1126907,-0.225383 -0.079684,-0.516901 0,-0.755955 0.1781797,-0.534537 0.5777726,-0.977365 0.7559523,-1.511903 0.079684,-0.239053 -0.1126906,-0.530571 0,-0.755951 0.8111199,-1.62224 1.8147029,-2.570658 3.0238096,-3.779764 0.2519841,-0.251984 0.4594434,-0.558279 0.7559524,-0.755951 0.4688216,-0.31255 1.1134828,-0.357532 1.5119046,-0.755952 1.5640925,-1.564095 -2.3901403,0.06114 0.7559524,-1.511906 0.2253816,-0.112691 0.5168992,0.07969 0.7559524,0 0.5345392,-0.178181 0.9773662,-0.577773 1.5119052,-0.755952 0.475795,-0.158599 3.098373,0 3.779761,0 0.525795,0 3.506385,-0.136689 3.779762,0 2.040113,1.020057 -0.02609,0.338834 0.755953,1.511904 0.395345,0.593018 0.941729,1.084273 1.511904,1.511906 0.450763,0.338071 1.061142,0.41788 1.511905,0.755951 0.570175,0.42763 1.007937,1.007936 1.511905,1.511906 0.251984,0.251984 0.596584,0.437213 0.755952,0.755952 0.112691,0.22538 -0.11269,0.530571 0,0.755951 0.159369,0.318739 0.596584,0.437216 0.755953,0.755955 0.338072,0.676142 -0.338073,1.591712 0,2.267854 0.318737,0.637477 1.247207,0.850162 1.511904,1.511906 0.374337,0.935845 0,2.015874 0,3.023809 0,3.02381 0,6.047619 0,9.07143 0,2.267855 0,4.535713 0,6.80357 0,1.007936 0.165703,2.029587 0,3.023809 -0.170802,1.024822 -0.552196,2.005029 -0.755952,3.023809 -0.201756,1.00878 0.237035,2.831619 0,3.779764 -0.193263,0.773051 -0.562689,1.494806 -0.755952,2.267857 -0.139514,0.558054 0,3.240522 0,3.779761 0,0.503968 0,1.007935 0,1.511906 0,0.251984 0,1.007935 0,0.755951 0,-0.179636 -0.08472,-2.854377 0,-3.023809 0.406312,-0.812625 1.105591,-1.455232 1.511904,-2.267857 0.112691,-0.225383 0,-0.503968 0,-0.755952 0.251983,-0.50397 0.466058,-1.028747 0.755954,-1.511906 0.467439,-0.779068 1.10559,-1.455232 1.511903,-2.267857 0.112691,-0.22538 -0.06111,-0.511493 0,-0.755952 0.193262,-0.773051 0.562689,-1.494806 0.755952,-2.267857 0.06112,-0.244459 -0.112689,-0.530572 0,-0.755952 0.159369,-0.318738 0.558281,-0.459443 0.755954,-0.755951 0.930402,-1.395606 1.337453,-3.140112 2.267857,-4.535715 0.395344,-0.593019 1.116558,-0.918888 1.511904,-1.511906 0.312547,-0.468821 0.357531,-1.113483 0.755951,-1.511904 0.178181,-0.178181 0.643263,0.22538 0.755955,0 0.22538,-0.450762 -0.15937,-1.033798 0,-1.511905 0.08471,-0.254149 2.84417,-2.844173 3.023809,-3.02381 0.444608,-0.444608 2.673744,-2.848776 3.023809,-3.023809 0.225382,-0.112691 0.503968,0 0.755951,0 0.251984,0 0.503968,0 0.755955,0 0.183337,0 2.243545,-0.02432 2.267855,0 0.178181,0.178179 0,0.503968 0,0.755952 0,0.723252 -0.128104,3.459498 0,3.779763 1.624597,4.061487 1.511905,1.715265 1.511905,3.779761 0,7.811508 0,15.623016 0,23.434519 0,3.02381 0,6.04762 0,9.07143 0,0.71199 0.143344,3.34973 0,3.77977 -0.112691,0.33807 -0.596582,0.43721 -0.755951,0.75595 -0.302382,0.60476 0.302379,1.66309 0,2.26785 -0.159369,0.31874 -0.596585,0.43722 -0.755954,0.75596 -0.112689,0.22538 0.112691,0.53057 0,0.75595 -0.159367,0.31874 -0.596583,0.43721 -0.755952,0.75595 -0.149865,0.29973 0.154546,2.11331 0,2.26786 -0.178178,0.17818 -0.577773,-0.17818 -0.755952,0 -0.178181,0.17818 0.139774,0.54629 0,0.75595 -0.503967,0.50397 -1.007938,1.00794 -1.511906,1.5119 0,0.25199 0.112692,0.53058 0,0.75596 -0.159369,0.31873 -0.503967,0.50397 -0.755951,0.75595 -0.594003,0.594 -3.539001,3.29824 -3.779761,3.77976 -0.302382,0.60476 0.302379,1.6631 0,2.26786 -0.159369,0.31874 -0.596585,0.43721 -0.755954,0.75595 -0.112689,0.22538 0.178181,0.57777 0,0.75595 -0.178179,0.17818 -0.577771,-0.17818 -0.755952,0 -0.178181,0.17818 0.178181,0.57778 0,0.75596 -0.04844,0.0484 -2.882998,1.41803 -3.023809,1.5119 -1.012417,0.67495 -0.755952,1.2347 -0.755952,2.26786 0,0.25198 0.178179,0.57777 0,0.75595 -0.178181,0.17818 -0.577773,-0.17818 -0.755954,0 -0.178178,0.17818 0.178181,0.57777 0,0.75595 -0.178178,0.17818 -0.57777,-0.17818 -0.755951,0 -0.178181,0.17818 0.178181,0.57778 0,0.75595 -0.178181,0.17819 -0.511493,0.0611 -0.755952,0 -0.773052,-0.19326 -1.511906,-0.50396 -2.267858,-0.75595 z"
       id="path4469"
       inkscape:connector-curvature="0" />
    <path
       style="fill:#ff0066;stroke:#000000;stroke-width:0.26458332px;stroke-linecap:butt;stroke-linejoin:miter;stroke-opacity:1"
       d="m 175.38095,263.73809 c -0.25198,-1.25992 -0.50397,-2.51984 -0.75595,-3.77976 -0.25199,-0.25199 -0.59658,-0.43721 -0.75595,-0.75595 -0.35636,-0.71272 -0.3996,-1.55514 -0.75596,-2.26786 -0.15936,-0.31874 -0.66952,-0.41023 -0.75595,-0.75595 -0.18335,-0.73338 0.14825,-1.52659 0,-2.26786 -0.1105,-0.55251 -0.50397,-1.00793 -0.75595,-1.5119 -1.25992,-2.51984 -2.51984,-5.03969 -3.77976,-7.55953 -0.25199,-0.50396 -0.60116,-0.97013 -0.75596,-1.5119 -0.35298,-1.23544 -0.34964,-2.56083 -0.75595,-3.77976 -0.11269,-0.33808 -0.53333,-0.47769 -0.75595,-0.75596 -0.78707,-0.98383 -1.48079,-2.03997 -2.26786,-3.02381 -0.22261,-0.27827 -0.55828,-0.45944 -0.75595,-0.75595 -0.31255,-0.46882 -0.44341,-1.04308 -0.75595,-1.5119 -0.19768,-0.29651 -0.54214,-0.47087 -0.75595,-0.75596 -0.54513,-0.72683 -0.96678,-1.54102 -1.51191,-2.26785 -0.64145,-0.85526 -1.5119,-1.51191 -2.26786,-2.26786 -0.25198,-0.25198 -0.59658,-0.43721 -0.75595,-0.75595 -0.35636,-0.71272 -0.39959,-1.55514 -0.75595,-2.26786 -0.15937,-0.31874 -0.54214,-0.47086 -0.75595,-0.75595 -0.54513,-0.72684 -0.86947,-1.62542 -1.51191,-2.26786 -0.17818,-0.17818 -0.61618,0.20966 -0.75595,0 -0.44201,-0.66301 -0.46001,-1.528 -0.75595,-2.26786 -0.41853,-1.0463 -1.23859,-1.93054 -1.51191,-3.02381 -0.86492,-3.45969 1.52694,0.78602 -0.75595,-3.77976 -0.40647,-0.81294 -1.98499,-2.64828 -2.26786,-3.77976 -0.12223,-0.48892 0,-1.00794 0,-1.5119 0,-0.50397 0,-1.00794 0,-1.51191 0,-1.00793 0,-2.01587 0,-3.02381 0,-0.25198 -0.0494,-0.50886 0,-0.75595 0.20376,-1.01878 0.5522,-2.00503 0.75595,-3.02381 0.0494,-0.24709 -0.0414,-0.5074 0,-0.75595 0.21124,-1.26739 0.54473,-2.51238 0.75596,-3.77976 0.0414,-0.24856 -0.0797,-0.5169 0,-0.75596 0.35636,-1.06907 1.23859,-1.93055 1.5119,-3.0238 0.12223,-0.48893 -0.15937,-1.0338 0,-1.51191 0.11269,-0.33807 0.50397,-0.50397 0.75595,-0.75595 1.45614,-1.45614 2.63906,-2.83144 4.53572,-3.77977 0.22538,-0.11269 0.54629,0.13978 0.75595,0 0.59302,-0.39534 1.00794,-1.00793 1.51191,-1.5119 0.25198,-0.25198 0.41023,-0.66952 0.75595,-0.75595 0.54325,-0.13582 3.70218,0 4.53571,0 2.51984,0 5.03969,0 7.55953,0 0.25753,0 2.61468,0.13637 3.02381,0 0.53453,-0.17818 0.97736,-0.57777 1.5119,-0.75595 0.41323,-0.13775 4.70075,0 5.29167,0 0.75595,0 1.5507,-0.23906 2.26785,0 0.33807,0.11269 0.50397,0.50396 0.75596,0.75595 0.75595,0.75595 1.67484,1.37833 2.26785,2.26785 0.096,0.14407 0,3.85681 0,4.53572 0,2.77182 0,5.54365 0,8.31548 0,1.08527 0.22454,2.8816 0,3.77976 -0.0864,0.34572 -0.59658,0.43721 -0.75595,0.75595 -0.35636,0.71272 -0.50397,1.5119 -0.75595,2.26786 -0.25198,0.75595 -0.56269,1.4948 -0.75595,2.26786 -0.15151,0.60603 0.19372,2.63636 0,3.0238 -0.15937,0.31874 -0.59659,0.43722 -0.75596,0.75596 -0.11269,0.22538 0,0.50396 0,0.75595 0,0.25198 0,0.50397 0,0.75595 0,0.50397 0,1.00794 0,1.51191 0,0.25198 0,1.00793 0,0.75595 0,-2.63881 -0.22538,-1.06114 1.51191,-4.53572 0.25198,-0.50397 0.41788,-1.06114 0.75595,-1.5119 0.42763,-0.57018 1.14522,-0.90075 1.51191,-1.5119 0.40997,-0.68329 0.39959,-1.55514 0.75595,-2.26786 0.40631,-0.81263 1.15401,-1.43278 1.5119,-2.26786 0.40927,-0.95495 0.334,-2.0744 0.75596,-3.02381 0.59674,-1.34267 1.53887,-2.50404 2.26785,-3.77976 0.27955,-0.48922 0.4764,-1.02269 0.75596,-1.51191 0.72898,-1.27571 1.61076,-2.46557 2.26785,-3.77976 0.35636,-0.71272 0.39959,-1.55514 0.75595,-2.26786 0.40632,-0.81262 1.1056,-1.45523 1.51191,-2.26785 0.11269,-0.22538 -0.0494,-0.50886 0,-0.75596 0.20376,-1.01878 0.5522,-2.00502 0.75595,-3.0238 0.0494,-0.2471 -0.0797,-0.5169 0,-0.75596 0.17818,-0.53454 0.50397,-1.00793 0.75595,-1.5119 0.25199,-0.50397 0.35753,-1.11348 0.75595,-1.51191 0.24509,-0.24508 3.29997,0.23991 3.77977,0 0.31874,-0.15936 0.43721,-0.59658 0.75595,-0.75595 0.22538,-0.11269 0.50397,0 0.75595,0 0.75596,0 1.51191,0 2.26786,0 0.75595,0 1.5119,0 2.26786,0 0.25198,0 0.53057,-0.11269 0.75595,0 0.63747,0.31874 0.87443,1.19317 1.5119,1.51191 0.22539,0.11269 0.53058,-0.11269 0.75596,0 0.31873,0.15937 0.43721,0.59658 0.75595,0.75595 0.22538,0.11269 0.53057,-0.11269 0.75595,0 3.14609,1.57304 -0.80814,-0.0522 0.75595,1.5119 0.39843,0.39842 1.11349,0.35753 1.51191,0.75596 0.18214,0.18213 -0.13558,2.48149 0,3.0238 0.19326,0.77306 0.56269,1.49481 0.75595,2.26786 0.0611,0.24446 0,0.50397 0,0.75595 0,1.00794 -0.1657,2.02959 0,3.02382 0.0926,0.55578 0.64545,0.95939 0.75595,1.5119 0.14826,0.74127 0,1.5119 0,2.26786 0,0.75595 0,1.5119 0,2.26785 0,2.01588 0,4.03175 0,6.04762 0,0.53582 0.0977,4.34026 0,4.53572 -0.15937,0.31874 -0.59658,0.43721 -0.75595,0.75595 -0.11269,0.22538 0.0797,0.5169 0,0.75595 -0.17818,0.53454 -0.57777,0.97737 -0.75595,1.51191 -0.0797,0.23905 0.0797,0.51689 0,0.75595 -1.82523,5.47568 0.21794,-1.19184 -1.51191,2.26786 -0.22538,0.45076 0.35636,1.15554 0,1.5119 -0.39842,0.39842 -1.11348,0.35753 -1.5119,0.75595 -0.17818,0.17818 0.0797,0.5169 0,0.75595 -0.17818,0.53454 -0.4434,1.04309 -0.75595,1.51191 -0.39535,0.59302 -1.19317,0.87443 -1.51191,1.5119 -0.11269,0.22539 0.13978,0.54629 0,0.75596 -0.39534,0.59301 -1.19317,0.87443 -1.5119,1.5119 -0.22538,0.45076 0,1.00794 0,1.51191 -0.25199,0.50396 -0.46606,1.02874 -0.75596,1.5119 -0.46744,0.77907 -0.96677,1.54103 -1.5119,2.26786 -0.21382,0.28509 -0.59658,0.43721 -0.75595,0.75595 -1.8746,0.71341 -0.42741,2.03817 -0.75595,3.02381 -0.5271,1.58128 -1.64836,2.98696 -2.26786,4.53571 -0.29594,0.73985 -0.39959,1.55514 -0.75595,2.26786 -0.31874,0.63748 -1.19317,0.87443 -1.51191,1.51191 -0.11269,0.22538 0.11269,0.53057 0,0.75595 -0.15937,0.31874 -0.59658,0.43721 -0.75595,0.75595 -0.11269,0.22538 0.11269,0.53057 0,0.75595 -0.15937,0.31874 -0.64326,0.41788 -0.75596,0.75596 -0.15936,0.4781 0.27956,1.09257 0,1.5119 -0.31254,0.46882 -1.11348,0.35753 -1.5119,0.75595 -0.17818,0.17818 0.0797,0.5169 0,0.75595 -0.25198,0.50397 -0.50397,1.00794 -0.75595,1.51191 -0.25199,0 -0.57777,-0.17818 -0.75595,0 -0.39842,0.39842 -0.57777,0.97737 -0.75596,1.5119 -0.0797,0.23906 0.17819,0.57778 0,0.75596 -0.39842,0.39842 -1.04308,0.4434 -1.5119,0.75595 -1.7367,1.1578 0.32415,0.4318 -1.5119,2.26786 -0.17819,0.17818 -0.64327,-0.22539 -0.75596,0 0,3.44131 0.35636,0.0432 -0.75595,2.26785 -0.11269,0.22538 0.17818,0.57778 0,0.75596 -0.39842,0.39842 -1.11348,0.35753 -1.5119,0.75595 -0.17819,0.17818 0.17817,0.57777 0,0.75595 -0.79685,0.79685 -2.22697,0.71506 -3.02381,1.51191 -0.53181,0.5318 0.74793,1.26526 -0.75596,2.26785 -0.83146,0.55431 -4.01473,1.74688 -4.53571,2.26786 -0.17818,0.17818 0.11269,0.53057 0,0.75595 -0.26833,0.53665 -1.83818,1.57329 -2.26786,1.51191 -1.34333,-0.1919 -2.72014,-2.3596 -3.77976,-1.51191 -7.48355,-1.3359 1.24726,4.04442 0,5.29167 -0.17818,0.17817 -0.50397,0 -0.75595,0 -0.50397,0 -1.00794,0 -1.51191,0 -0.25198,0 -0.50397,0 -0.75595,0"
       id="path4471"
       inkscape:connector-curvature="0" />
    <path
       style="fill:#ff6600;stroke:#000000;stroke-width:0.26458332px;stroke-linecap:butt;stroke-linejoin:miter;stroke-opacity:1"
       d="m 153.45833,62.654761 c -0.4356,-1.682932 0.28531,-3.579841 0,-5.291666 -0.21123,-1.267391 -0.27876,-2.586789 -0.75595,-3.779761 -0.0936,-0.233963 -0.66237,0.23396 -0.75595,0 -4.16248,-10.406205 -0.0976,-1.243798 -0.75596,-4.535715 -0.20375,-1.018781 -0.4274,-2.03817 -0.75595,-3.023809 -0.17818,-0.53454 -0.54669,-0.988753 -0.75595,-1.511906 -0.47866,-1.196642 -1.35261,-4.17662 -1.51191,-5.291667 -0.0834,-0.583819 0.19789,-2.988222 0,-3.77976 -0.19326,-0.773052 -0.56268,-1.494806 -0.75595,-2.267858 -0.13951,-0.558054 0,-3.240524 0,-3.779763 0,-2.015871 0,-4.031745 0,-6.047618 0,-2.015873 0,-4.031746 0,-6.047619 0,-0.755953 -0.14825,-1.526585 0,-2.267857 0.1105,-0.552512 0.6193,-0.965275 0.75595,-1.511905 0.12223,-0.488921 -0.12222,-1.022984 0,-1.511905 0.13666,-0.54663 0.44341,-1.043083 0.75596,-1.511905 0.20958,-0.314373 2.75344,-2.8886233 3.02381,-3.0238089 0.22538,-0.1126908 0.57777,0.1781796 0.75595,0 0.39842,-0.398422 0.35753,-1.1134828 0.75595,-1.5119049 0.17818,-0.1781796 0.50397,0 0.75595,0 1.25993,0 2.51984,0 3.77977,0 1.5119,0 3.02381,0 4.53571,0 0.25199,0 0.5169,-0.079684 0.75595,0 0.53454,0.1781797 0.97737,0.5777728 1.51191,0.7559525 0.23905,0.079684 0.53057,-0.1126908 0.75595,0 7.13041,3.5652043 -0.16553,0.1416317 3.02381,2.2678569 1.73816,1.1587754 2.0416,0.3531296 3.77976,1.5119044 0.29651,0.197673 0.50397,0.503969 0.75595,0.755953 0.48414,0.484142 2.31638,2.552189 3.02381,3.023809 1.9316,1.287735 1.38896,0.08805 3.02381,2.267857 0.3682,0.490935 2.06452,3.925697 2.26786,4.535715 0.0797,0.239053 -0.11269,0.530571 0,0.755952 0.15937,0.318738 0.64326,0.41788 0.75595,0.755952 0.15937,0.478107 0,1.007937 0,1.511905 0,0.251984 -0.11269,0.530571 0,0.755952 0.15937,0.318738 0.64326,0.417881 0.75595,0.755953 0.15937,0.478106 -0.22538,1.061141 0,1.511906 0.11269,0.22538 0.57778,-0.178181 0.75596,0 0.17818,0.178178 0,0.503968 0,0.755952 0,1.511903 0,3.023809 0,4.535715 0,0.755951 0,1.511903 0,2.267854 0,0.251984 0.25198,0.755955 0,0.755955 -0.25199,0 -0.11269,-0.530572 0,-0.755955 0.50397,-0.755951 1.00793,-1.511903 1.5119,-2.267854 0,-0.251987 -0.11269,-0.530572 0,-0.755955 0.40647,-0.81294 1.98499,-2.648283 2.26786,-3.77976 0.12223,-0.488921 0,-1.007939 0,-1.511906 0,-0.251984 -0.11269,-0.530571 0,-0.755952 0.40631,-0.812624 1.04446,-1.488789 1.5119,-2.267857 0.2899,-0.483158 0.44341,-1.043083 0.75596,-1.511905 0.39534,-0.593018 1.11655,-0.918887 1.5119,-1.511905 0.31255,-0.468821 0.4434,-1.043083 0.75595,-1.511904 0.20959,-0.314374 2.75344,-2.888624 3.02381,-3.02381 0.22538,-0.112691 0.5169,0.07968 0.75595,0 0.53454,-0.17818 0.97737,-0.577773 1.51191,-0.755952 0.4781,-0.159369 1.00794,0 1.5119,0 1.25993,0 2.51984,0 3.77977,0 0.68138,0 3.30396,-0.158599 3.77976,0 0.53454,0.178179 1.06114,0.41788 1.5119,0.755952 2.17981,1.634857 0.98013,1.092208 2.26786,3.02381 0.21361,0.32042 1.95508,2.111469 2.26786,2.267857 0.22538,0.11269 0.53057,-0.112691 0.75595,0 0.31874,0.159368 0.50397,0.503968 0.75595,0.755952 0.25199,0.251984 0.59658,0.437215 0.75595,0.755952 0.11269,0.225382 0,0.503969 0,0.755953 0.25199,0.503968 0.41788,1.061142 0.75595,1.511904 0.42764,0.570176 1.00794,1.007937 1.51191,1.511905 0.25198,0.251984 0.59658,0.437216 0.75595,0.755954 0.11269,0.22538 -0.11269,0.530569 0,0.755952 0.15937,0.318738 0.59659,0.437213 0.75596,0.755951 0.0847,0.169431 0,2.844173 0,3.023809 0,0.403842 0.10817,3.563406 0,3.779764 -0.15937,0.318735 -0.59659,0.437213 -0.75596,0.755951 -0.11269,0.22538 0.17818,0.577774 0,0.755952 -0.17818,0.178181 -0.57777,-0.178178 -0.75595,0 -0.35636,0.356359 0.22538,1.061143 0,1.511906 -0.31874,0.637474 -1.19317,0.874429 -1.51191,1.511903 -0.35635,0.712719 -0.31394,1.604843 -0.75595,2.267858 -0.13977,0.209663 -0.55436,-0.151191 -0.75595,0 -0.85526,0.641447 -1.60001,1.433046 -2.26786,2.267857 -0.35198,0.439984 -0.40396,1.071922 -0.75595,1.511906 -0.66785,0.834808 -1.5119,1.511903 -2.26786,2.267857 -0.25198,0.251984 -0.47768,0.533334 -0.75595,0.755952 -0.98383,0.787067 -2.13291,1.376958 -3.02381,2.267857 -0.17818,0.178179 0.17818,0.577771 0,0.755952 -0.64243,0.642435 -1.5119,1.007936 -2.26785,1.511906 -0.75596,0.503968 -1.48879,1.044464 -2.26786,1.511903 -0.48316,0.289896 -1.04308,0.443405 -1.51191,0.755952 -1.72985,1.153234 0.47269,0.598389 -2.26785,1.511906 -0.4758,0.158599 -3.09838,0 -3.77976,0 -3.02381,0 -6.04762,0 -9.07143,0 -0.73242,0 -4.08497,-0.150252 -4.53572,0 -0.53454,0.178178 -1.04308,0.443404 -1.5119,0.755951 -0.29651,0.197673 -0.41788,0.643263 -0.75595,0.755955 -1.79645,0.598813 -1.37299,-0.894877 -3.02381,0.755951 -0.39843,0.39842 -0.57778,0.977366 -0.75596,1.511903 -0.0797,0.239054 0.17818,0.577774 0,0.755955 -0.39842,0.39842 -1.11348,0.357528 -1.5119,0.755951 -0.17818,0.178179 0.11269,0.530572 0,0.755952 -1.57305,3.146094 0.0522,-0.808141 -1.51191,0.755954 -0.17818,0.178179 0.17818,0.577771 0,0.755952 -0.17818,0.178178 -0.5169,-0.07968 -0.75595,0 -0.53454,0.178178 -0.97736,0.577773 -1.5119,0.755951 -0.42651,0.142169 -1.77112,0 -2.26786,0 -1.51191,0 -3.02381,0 -4.53571,0 -0.34045,0 -2.0378,0.115031 -2.26786,0 -0.31874,-0.159369 -0.43722,-0.596582 -0.75595,-0.755951 -0.22539,-0.112692 -0.50397,0 -0.75596,0 -2.01587,0 -0.55436,0.151191 -3.77976,-2.267858 z"
       id="path4473"
       inkscape:connector-curvature="0" />
    <path
       style="fill:#00ffff;stroke:#000000;stroke-width:0.26458332px;stroke-linecap:butt;stroke-linejoin:miter;stroke-opacity:1"
       d="m 52.916666,31.660713 c 0,-1.007935 0.276902,-2.054653 0,-3.023809 -0.249595,-0.873585 -1.044464,-1.488789 -1.511906,-2.267857 -0.289893,-0.483157 -0.503968,-1.007936 -0.755951,-1.511905 -0.503968,-1.007936 -1.093383,-1.977502 -1.511904,-3.023809 -0.09358,-0.233961 0.07968,-0.516899 0,-0.755952 -0.178181,-0.534539 -0.50397,-1.007937 -0.755954,-1.511905 -0.251984,-0.503968 -0.41788,-1.061142 -0.755952,-1.511905 -0.01556,-0.02075 -2.659454,-2.841632 -3.023809,-3.023809 -0.225382,-0.112691 -0.577773,0.178179 -0.755951,0 -0.178181,-0.17818 0,-0.503969 0,-0.755953 0,-0.633488 -0.160647,-3.45847 0,-3.779762 0.22538,-0.450763 1.06114,0.225382 1.511903,0 0.318738,-0.159368 0.437216,-0.5965831 0.755952,-0.755952 0.230063,-0.115031 1.92741,0 2.267857,0 2.015874,0 4.031747,0 6.047621,0 0.183338,0 2.243545,-0.02431 2.267855,0 0.356359,0.356359 -0.22538,1.061142 0,1.511905 0.159369,0.318737 0.596585,0.437215 0.755954,0.755952 0.08471,0.169432 0,2.844172 0,3.02381 0,1.511904 0,3.023809 0,4.535714 0,0.183339 -0.02432,2.243546 0,2.267857 0.535281,0.535281 1.393817,-0.578822 1.511903,-0.755952 2.545951,-3.818925 0.0058,-0.01752 0.755954,-2.267857 0.178179,-0.534539 0.577771,-0.977366 0.755952,-1.511905 0.07968,-0.239053 -0.178181,-0.577773 0,-0.755953 0.178178,-0.178179 0.577773,0.17818 0.755952,0 0.356359,-0.356359 -0.35636,-1.155545 0,-1.511904 0.178181,-0.17818 0.577773,0.178179 0.755951,0 0.178181,-0.17818 -0.178178,-0.577773 0,-0.755953 0.35636,-0.356359 1.155547,0.35636 1.511906,0 0.178181,-0.178179 -0.178181,-0.577772 0,-0.755952 0.35636,-0.356359 1.061141,0.225381 1.511906,0 0.318736,-0.159369 0.399592,-0.755952 0.755952,-0.755952 0.251984,0 0,0.503968 0,0.755952 0,0.503968 0,1.007936 0,1.511905 0,3.779762 0,7.559523 0,11.339285 0,0.18334 0.02431,2.243547 0,2.267857 -0.03042,0.03042 -2.746198,0 -3.023809,0 -2.267858,0 -4.535715,0 -6.803573,0 -0.251984,0 -0.503968,0 -0.755952,0 -0.251983,0 -0.604763,-0.201586 -0.755951,0 -0.676145,0.901526 -1.007938,2.015874 -1.511906,3.023809 z"
       id="path4475"
       inkscape:connector-curvature="0" />
  </g>
</svg>
