<?xml version="1.0" encoding="UTF-8" standalone="no"?>
<!-- Created with Inkscape (http://www.inkscape.org/) -->

<svg
   xmlns:dc="http://purl.org/dc/elements/1.1/"
   xmlns:cc="http://creativecommons.org/ns#"
   xmlns:rdf="http://www.w3.org/1999/02/22-rdf-syntax-ns#"
   xmlns:svg="http://www.w3.org/2000/svg"
   xmlns="http://www.w3.org/2000/svg"
   xmlns:sodipodi="http://sodipodi.sourceforge.net/DTD/sodipodi-0.dtd"
   xmlns:inkscape="http://www.inkscape.org/namespaces/inkscape"
   width="210mm"
   height="297mm"
   viewBox="0 0 210 297"
   version="1.1"
   id="svg8"
   inkscape:version="0.92.5 (2060ec1f9f, 2020-04-08)"
   sodipodi:docname="drawing.svg">
  <defs
     id="defs2" />
  <sodipodi:namedview
     id="base"
     pagecolor="#ffffff"
     bordercolor="#666666"
     borderopacity="1.0"
     inkscape:pageopacity="0.0"
     inkscape:pageshadow="2"
     inkscape:zoom="0.35"
     inkscape:cx="-105.71429"
     inkscape:cy="548.57143"
     inkscape:document-units="mm"
     inkscape:current-layer="layer1"
     showgrid="false"
     inkscape:window-width="1848"
     inkscape:window-height="1016"
     inkscape:window-x="72"
     inkscape:window-y="27"
     inkscape:window-maximized="1" />
  <metadata
     id="metadata5">
    <rdf:RDF>
      <cc:Work
         rdf:about="">
        <dc:format>image/svg+xml</dc:format>
        <dc:type
           rdf:resource="http://purl.org/dc/dcmitype/StillImage" />
        <dc:title></dc:title>
      </cc:Work>
    </rdf:RDF>
  </metadata>
  <g
     inkscape:label="Layer 1"
     inkscape:groupmode="layer"
     id="layer1">
    <path
       style="fill:#2c2ca0;stroke:#000000;stroke-width:0.26458332px;stroke-linecap:butt;stroke-linejoin:miter;stroke-opacity:1"
       d="m 9.8273808,111.03571 c 1.0079362,-1.5119 2.0158732,-3.02381 3.0238092,-4.53571 0,-0.25199 -0.125019,-0.53717 0,-0.75595 0.901526,-1.57767 2.141356,-2.9473 3.02381,-4.53572 0.386981,-0.69657 0.526981,-1.504616 0.755952,-2.267854 0.527132,-1.757106 0.830599,-3.588404 1.511905,-5.291667 0.337424,-0.84356 1.007936,-1.511906 1.511905,-2.267857 1.007936,-2.519842 2.070877,-5.018371 3.023809,-7.559524 2.324235,-6.19796 2.436498,-9.589267 6.047619,-16.630952 C 31.822244,61.153172 36.13496,55.799965 39.309524,49.803571 45.215137,38.64852 50.295807,27.075053 55.940475,15.785714 57.856217,11.954229 59.582774,7.9911114 61.988093,4.4464284 64.397572,0.89561825 67.779645,-1.9105566 70.303572,-5.3809524 73.838929,-10.24207 76.453136,-15.74575 80.130951,-20.5 c 6.672717,-8.625709 14.083757,-16.654241 21.166669,-24.946428 3.24856,-3.803192 6.39018,-7.705677 9.82738,-11.339285 5.38758,-5.695445 11.26892,-10.911448 16.63095,-16.630951 13.71649,-14.630921 -3.08903,-0.319276 15.875,-17.386906 1.6112,-1.450081 3.56978,-2.463022 5.29167,-3.779761 2.56337,-1.960226 5.03968,-4.031747 7.55952,-6.047619 1.25992,-1.00794 2.42253,-2.1513 3.77976,-3.02381 2.26786,-1.25992 4.53572,-2.51984 6.80357,-3.77976 0.75596,-0.75596 1.37833,-1.67484 2.26786,-2.26786 1.40647,-0.93764 3.09611,-1.38194 4.53572,-2.26786 1.84609,-1.13606 3.52777,-2.51984 5.29166,-3.77976 2.51984,-1.00794 5.16997,-1.73712 7.55953,-3.02381 0.94129,-0.50685 1.33963,-1.73744 2.26785,-2.26785 2.95297,-1.68741 2.57002,-0.21163 5.29167,-0.75596 0.55251,-0.1105 0.97736,-0.57777 1.5119,-0.75595 0.47811,-0.15937 1.00794,0 1.51191,0"
       id="path3713"
       inkscape:connector-curvature="0" />
    <path
       style="fill:#ff0000;stroke:#000000;stroke-width:0.26458332px;stroke-linecap:butt;stroke-linejoin:miter;stroke-opacity:1"
       d="m -12.095238,177.55952 c 0.755952,-1.5119 1.429203,-3.06807 2.2678572,-4.53571 0.1768039,-0.30941 0.5488226,-0.46597 0.7559524,-0.75596 1.0561582,-1.47862 2.1222835,-2.95804 3.0238094,-4.53571 0.1250191,-0.21878 -0.1445033,-0.54952 0,-0.75595 1.6475924,-2.3537 3.5504675,-4.51825 5.29166662,-6.80357 C 1.5347467,157.16608 3.5317533,153.92201 6.047619,151.10119 20.178447,135.25753 21.981474,135.84633 32.505951,122.375 36.16721,117.68859 39.168265,112.48324 43.089284,108.0119 61.425203,87.102526 71.874837,76.958493 89.202381,59.630952 97.76984,51.063493 106.3373,42.49603 114.90476,33.928571 c 2.77182,-2.771825 5.42244,-5.670413 8.31548,-8.315476 5.93071,-5.422367 12.10658,-10.570396 18.14285,-15.875 6.79608,-5.9723146 13.07372,-11.8841539 20.41072,-17.3869043 2.35089,-1.7631688 5.1563,-2.8445607 7.55952,-4.5357147 4.41018,-3.10346 8.55773,-6.564351 12.85119,-9.827381 2.0062,-1.524713 4.05858,-2.988681 6.04762,-4.535714 4.81496,-3.744971 9.45771,-7.713565 14.3631,-11.339285 6.69017,-4.944914 13.87597,-9.214517 20.41071,-14.363094 18.34946,-4.127331 24.21406,-22.243867 37.04167,-32.505954 3.54726,-2.837807 7.82744,-4.678008 11.33929,-7.559524 6.3423,-5.203939 12.07238,-11.112334 18.14284,-16.630954 7.00191,-6.36535 14.47369,-12.20582 21.16667,-18.89881"
       id="path3715"
       inkscape:connector-curvature="0" />
    <path
       style="fill:#ff00ff;stroke:#000000;stroke-width:0.26458332px;stroke-linecap:butt;stroke-linejoin:miter;stroke-opacity:1"
       d="m -14.363095,256.17857 c 0.755952,-1.25992 1.386273,-2.60432 2.267857,-3.77976 1.278621,-1.70483 5.8294849,-5.18177 6.8035714,-6.04762 0.799039,-0.71026 1.4330473,-1.60001 2.2678572,-2.26786 2.95149806,-2.3612 6.068945,-4.50755 9.0714284,-6.80357 1.2816851,-0.98011 2.4631181,-2.09119 3.7797618,-3.02381 4.7338482,-3.35314 9.6494712,-6.44587 14.3630952,-9.82738 6.879613,-4.93537 13.605578,-10.08148 20.410714,-15.11905 12.597641,-9.32552 25.25863,-18.56599 37.797618,-27.97024 11.60104,-8.70078 12.869103,-10.97275 26.458332,-19.65476 12.67334,-8.09686 25.77024,-15.51246 38.55357,-23.43452 21.89298,-13.56748 13.41744,-9.47976 40.06548,-27.97024 3.90618,-2.71041 8.05846,-5.04775 12.09523,-7.55952 7.30253,-4.543793 14.56269,-9.156955 21.92263,-13.607146 16.1217,-9.748006 7.16831,-3.17922 27.21428,-15.875 2.12881,-1.348245 3.99137,-3.079202 6.04762,-4.535714 3.99252,-2.828034 8.0528,-5.559267 12.09523,-8.315476 1.50132,-1.023631 3.06266,-1.959925 4.53573,-3.023809 14.56041,-10.515857 4.32781,-3.270946 12.85118,-9.827382 1.99728,-1.536374 4.01561,-3.045571 6.04763,-4.535712 1.748,-1.281869 3.57352,-2.458125 5.29167,-3.779764 1.55993,-1.199946 3.06475,-2.472253 4.5357,-3.77976 0.79904,-0.710258 1.51191,-1.511906 2.26785,-2.267858 0.50398,-0.503968 0.9189,-1.11656 1.51191,-1.511906 0.20968,-0.139774 0.57777,0.178181 0.75596,0 0.39841,-0.39842 0.44339,-1.043082 0.75594,-1.511903 0.19767,-0.296511 0.50398,-0.50397 0.75597,-0.755954"
       id="path3717"
       inkscape:connector-curvature="0" />
    <path
       style="fill:#008080;stroke:#000000;stroke-width:0.26458332px;stroke-linecap:butt;stroke-linejoin:miter;stroke-opacity:1"
       d="m -13.607143,287.17261 c 3.6717818,-2.55831 7.2392493,-4.98134 11.3392859,-6.80358 0.728165,-0.32361 1.51190472,-0.50395 2.2678571,-0.75594 2.015873,-0.75594 4.0995867,-1.35115 6.047619,-2.26785 2.3474032,-1.10466 4.483127,-2.61956 6.803571,-3.77976 4.738374,-2.36921 9.66292,-4.35948 14.363095,-6.80357 1.612148,-0.83833 2.977578,-2.08894 4.535715,-3.02382 4.743809,-2.84628 9.512405,-5.65542 14.363094,-8.31547 2.964259,-1.62557 6.153816,-2.82785 9.071429,-4.53572 7.422568,-4.34492 14.629202,-9.04875 21.922619,-13.60714 9.102756,-5.68923 20.791426,-13.40551 28.726188,-18.89881 3.10769,-2.15148 5.95197,-4.6692 9.07143,-6.80357 16.84461,-11.52526 34.42639,-21.94299 51.40476,-33.26191 2.85173,-1.90115 5.51124,-4.07707 8.31548,-6.04762 6.51971,-4.58141 13.1492,-9.00565 19.65476,-13.60714 5.59629,-3.95835 11.05305,-8.11102 16.63095,-12.09523 1.76389,-1.25993 3.3715,-2.77396 5.29167,-3.77977 3.39992,-1.78091 7.11469,-2.89267 10.58333,-4.53571 1.32787,-0.62899 2.42113,-1.70842 3.77976,-2.26786 6.47912,-2.66787 7.48232,-2.70598 12.85119,-3.77976"
       id="path3719"
       inkscape:connector-curvature="0" />
    <path
       style="fill:#00ffff;stroke:#000000;stroke-width:0.26458332px;stroke-linecap:butt;stroke-linejoin:miter;stroke-opacity:1"
       d="m 9.0714284,306.07142 c 4.6103586,-4.58311 9.9922506,-8.15154 15.1190476,-12.09524 1.278887,-0.98374 2.418527,-2.15757 3.779763,-3.02381 4.192915,-2.66822 8.643487,-4.91467 12.851188,-7.55952 4.615227,-2.901 8.815321,-6.47248 13.607145,-9.07142 77.117038,-41.82619 4.319431,-1.02579 43.089284,-20.41072 47.819964,-23.90998 -24.549065,7.78839 62.744044,-27.97024 32.22363,-13.20004 9.22315,-4.46964 56.69643,-22.67857 5.50756,-2.11249 11.11146,-3.9665 16.63095,-6.04762 9.85215,-3.71474 19.54982,-7.84458 29.48214,-11.33928 3.69009,-1.29837 7.66559,-1.67977 11.3393,-3.02381 6.68073,-2.44418 13.0378,-5.70353 19.65476,-8.31548 2.96474,-1.1703 6.09124,-1.89339 9.07142,-3.02381 4.33152,-1.64299 8.54986,-3.57113 12.85119,-5.29166 10.3201,-4.12804 4.45238,-0.91609 18.89881,-8.31548 24.31127,-12.45211 16.54416,-9.14102 43.08928,-27.21428 14.94046,-10.17223 9.29097,-4.41559 25.70239,-19.65477 2.22351,-2.06468 3.83805,-4.72397 6.04761,-6.80357 2.09216,-1.96909 4.52633,-3.53993 6.80357,-5.291664 4.36174,-3.355176 1.75398,-1.37971 6.80358,-4.535715 0.77044,-0.481526 1.41716,-1.192895 2.26785,-1.511906 1.20306,-0.451149 2.54434,-0.402971 3.77976,-0.755952 0.54178,-0.154791 0.94845,-0.755951 1.5119,-0.755951 3.39434,0 3.78868,0.382426 6.04764,1.511903"
       id="path3721"
       inkscape:connector-curvature="0" />
    <path
       style="fill:#800000;stroke:#000000;stroke-width:0.26458332px;stroke-linecap:butt;stroke-linejoin:miter;stroke-opacity:1"
       d="m 78.619047,327.99403 c 1.007936,-0.50395 2.057493,-0.9321 3.023809,-1.51188 0.542238,-0.32536 2.738843,-2.73886 3.02381,-3.02382 1.511905,-1.51191 3.023809,-3.02381 4.535715,-4.53572 1.007935,-1.00793 1.941536,-2.09614 3.023809,-3.02379 0.689816,-0.59129 1.511903,-1.00796 2.267857,-1.51191 1.511903,-1.25992 3.064767,-2.47227 4.535713,-3.77976 0.799039,-0.71027 1.42048,-1.61605 2.26786,-2.26788 9.30851,-7.16039 4.66152,-3.21897 11.33928,-7.55951 3.80881,-2.47573 7.60431,-4.97377 11.33929,-7.55952 6.09333,-4.21846 11.84337,-8.94728 18.14286,-12.85121 51.53599,-31.93778 19.67877,-11.54112 46.11309,-25.70237 3.58156,-1.91869 6.9744,-4.18093 10.58333,-6.04762 3.70483,-1.91629 7.54751,-3.55376 11.33929,-5.29166 24.82081,-11.37621 18.07173,-8.39299 35.52976,-15.875 5.29167,-2.26786 10.62154,-4.44857 15.875,-6.80357 2.05663,-0.92194 3.9616,-2.17045 6.04763,-3.02381 3.4671,-1.41837 7.10522,-2.38853 10.58333,-3.77976 1.56946,-0.62779 2.97267,-1.62426 4.5357,-2.26786 2.72724,-1.12298 5.57705,-1.92843 8.31548,-3.02381 6.37575,-2.5503 -0.75626,-0.97185 9.07143,-3.77976 1.47378,-0.42108 3.03699,-0.4348 4.53572,-0.75596 2.03179,-0.43538 4.04292,-0.96516 6.04761,-1.5119 7.26586,-1.98159 -4.00116,0.82976 5.29167,-2.26786 0.4781,-0.15937 1.0338,0.15937 1.51191,0 0.33808,-0.11269 0.50397,-0.50396 0.75594,-0.75595 0.25199,-0.25198 0.50398,-0.50397 0.75596,-0.75595"
       id="path3723"
       inkscape:connector-curvature="0" />
    <path
       style="fill:#ffaaaa;stroke:#000000;stroke-width:0.26458332px;stroke-linecap:butt;stroke-linejoin:miter;stroke-opacity:1"
       d="m 127.75595,323.45833 c 7.03135,-9.37514 -0.83816,0.17846 3.77976,-3.77976 1.35284,-1.15958 2.35432,-2.71068 3.77976,-3.77975 0.63747,-0.47813 1.55514,-0.3996 2.26786,-0.75597 2.32044,-1.16022 4.64495,-2.34069 6.80357,-3.77976 0.88952,-0.59301 1.35113,-1.71783 2.26786,-2.26785 2.89894,-1.73937 6.04761,-3.02382 9.07142,-4.53572 5.71635,-2.85817 9.29646,-4.69929 15.875,-7.55952 1.97441,-0.85844 4.05379,-1.45555 6.04762,-2.26785 4.81085,-1.95998 9.60652,-3.95938 14.3631,-6.04763 5.57579,-2.4479 10.91369,-5.4632 16.63095,-7.55952 28.55419,-10.46988 21.23608,-6.39286 42.33332,-12.85118 12.20385,-0.0122 21.58447,-7.81624 32.50597,-11.3393 23.30447,-7.51758 7.17037,-1.9294 18.89881,-4.5357 3.04263,-0.67615 6.00197,-1.7262 9.07143,-2.26788 1.24074,-0.21894 2.52354,0.0966 3.77976,0 2.02557,-0.15581 4.0437,-0.42196 6.04761,-0.75594 1.02483,-0.17081 1.99001,-0.65257 3.02381,-0.75596 2.25661,-0.22566 4.53573,0 6.80358,0 1.25992,0 2.51984,0 3.77976,0 0.75594,0 1.5195,-0.1069 2.26785,0 1.02851,0.14694 1.999,0.58515 3.02381,0.75596 0.4971,0.0828 1.02299,-0.12224 1.51191,0 0.54663,0.13666 0.97737,0.57777 1.51191,0.75594 0.42651,0.14219 1.77109,0 2.26785,0"
       id="path3725"
       inkscape:connector-curvature="0" />
    <path
       style="fill:#800080;stroke:#000000;stroke-width:0.3204968px;stroke-linecap:butt;stroke-linejoin:miter;stroke-opacity:1"
       d="m -34.001648,131.42013 c 2.705122,-3.65151 4.262577,-7.85138 6.487844,-11.76123 0.540964,-0.9505 1.35551,-1.74159 1.853668,-2.71413 1.669447,-3.25918 2.964728,-6.69262 4.634174,-9.9518 0.805629,-1.5728 1.974874,-2.95075 2.780504,-4.52355 2.595873,-5.067812 4.736733,-10.35311 7.414677,-15.380065 1.34465,-2.524135 3.3011963,-4.707647 4.6341739,-7.237674 C -1.9624596,71.815153 1.7724721,63.536779 5.8522432,55.424524 10.114215,46.949976 14.426319,38.498919 18.827927,30.092658 c 2.704577,-5.165243 5.544961,-10.261701 8.341513,-15.380061 2.146596,-3.928788 3.996033,-8.0316589 6.487843,-11.7612252 2.161266,-3.23483401 5.361381,-5.7459244 7.414676,-9.0470952 3.226692,-5.1876836 5.561009,-10.8565136 8.341512,-16.2847716 0.874152,-1.706568 4.686857,-9.149945 5.561009,-10.856512 0.61789,-1.206278 1.309413,-2.379223 1.853668,-3.61884 0.769694,-1.75308 1.127995,-3.657378 1.85367,-5.428257 0.256565,-0.626098 0.708379,-1.169693 0.926835,-1.809416 0.09769,-0.286096 -0.07493,-0.612146 0,-0.904712 0.236948,-0.925174 0.689884,-1.788955 0.926834,-2.714129 0.380458,-1.485502 -0.988895,-0.844131 0.926837,-2.714127 0.218454,-0.213244 0.650503,0.134863 0.926832,0 0.39079,-0.190729 0.61789,-0.603141 0.926834,-0.904711 0.308945,-0.30157 0.61789,-0.60314 0.926837,-0.904709"
       id="path3727"
       inkscape:connector-curvature="0" />
    <path
       style="fill:none;stroke:#000000;stroke-width:0.26458332px;stroke-linecap:butt;stroke-linejoin:miter;stroke-opacity:1"
       d="m 9.8273808,111.03571 c 0.088511,3.34329 0.084888,1.29969 -1.5119048,5.29167 -0.093585,0.23396 0,0.50397 0,0.75595 -0.7559522,1.51191 -1.4292032,3.06807 -2.267857,4.53572 -0.1768038,0.3094 -0.6155756,0.4284 -0.7559524,0.75595 -0.6277843,1.46483 -1.1253787,2.98961 -1.5119048,4.53571 -0.1222301,0.48892 0,1.00794 0,1.51191 -0.5039683,1.5119 -0.864647,3.07938 -1.5119047,4.53571 -0.3689937,0.83024 -1.0303786,1.49742 -1.51190472,2.26786 -0.77873132,1.24597 -1.6711149,2.43709 -2.26785708,3.77976 -0.4219605,0.94941 -0.2513902,2.1156 -0.7559524,3.02381 -0.7835779,1.41044 -2.0557181,2.48897 -3.0238095,3.77976 -0.545125,0.72684 -1.0303785,1.49742 -1.5119048,2.26786 -1.1996185,1.91939 -2.858127,5.12598 -4.5357146,6.80357 -1.140906,1.14091 -2.554712,1.97377 -3.779761,3.02381 -0.541137,0.46383 -1.007937,1.00794 -1.511905,1.51191 -1.007937,1.00793 -2.096147,1.94153 -3.02381,3.02381 -0.591271,0.68981 -0.869468,1.62542 -1.511904,2.26785 -1.235282,1.23528 -3.789345,2.70668 -5.291667,3.77976 -1.025239,0.73232 -2.039977,1.48079 -3.023809,2.26786 -0.834811,0.66785 -1.511906,1.5119 -2.267858,2.26786 -0.251983,0.25198 -0.459443,0.55828 -0.755951,0.75595 -0.468823,0.31255 -1.113483,0.35753 -1.511906,0.75595 -0.178178,0.17818 0.139777,0.54629 0,0.75596 -0.395346,0.59301 -1.007936,1.00793 -1.511903,1.5119 -0.251987,0.25198 -0.596585,0.43722 -0.755955,0.75595 -0.22538,0.45076 0.225383,1.06114 0,1.51191 -0.159369,0.31873 -0.596582,0.43721 -0.755951,0.75595 -0.112692,0.22538 0.112691,0.53057 0,0.75595 -0.159369,0.31874 -0.596583,0.43722 -0.755952,0.75595 -0.112691,0.22538 0.07968,0.5169 0,0.75596 -0.178181,0.53454 -0.577773,0.97736 -0.755954,1.5119 -0.158597,0.4758 0,3.09837 0,3.77976"
       id="path3729"
       inkscape:connector-curvature="0" />
    <path
       style="fill:#ffff00;stroke:#000000;stroke-width:0.26458332px;stroke-linecap:butt;stroke-linejoin:miter;stroke-opacity:1"
       d="m -5.2916666,219.89285 c 1.0079365,-0.50396 2.0972751,-0.87045 3.0238095,-1.5119 2.36220835,-1.63538 4.5444307,-3.51663 6.8035713,-5.29167 5.9263658,-4.65643 6.8212538,-5.6308 14.3630948,-12.09524 3.527778,-3.0238 7.09525,-6.00191 10.583333,-9.07142 5.891601,-5.18461 11.412667,-10.78584 17.386906,-15.875 3.684765,-3.13888 7.45703,-6.18039 11.339285,-9.07143 7.964466,-5.93099 16.267477,-11.40064 24.190475,-17.38691 3.423756,-2.58683 6.466946,-5.64689 9.827382,-8.31547 5.209701,-4.13712 10.68021,-7.93941 15.875,-12.09524 2.36938,-1.89551 4.53571,-4.03174 6.80357,-6.04762 5.03968,-3.77976 10.14644,-7.4717 15.11905,-11.33928 1.8338,-1.4263 3.40122,-3.1854 5.29166,-4.53572 4.89116,-3.49368 10.27195,-6.27284 15.11905,-9.82738 11.34462,-8.319386 2.06781,-2.561987 14.3631,-9.827382 3.01382,-1.780894 6.15869,-3.349839 9.07143,-5.291666 1.63752,-1.091682 2.97578,-2.579815 4.53571,-3.779761 1.71813,-1.321639 3.51586,-2.536698 5.29167,-3.779761 0.7443,-0.521014 1.47902,-1.061143 2.26785,-1.511906 0.97843,-0.559101 2.14385,-0.807931 3.02381,-1.511905 0.43999,-0.351986 0.35753,-1.113483 0.75596,-1.511904 5.25925,-5.259249 -0.0674,0.411681 3.77976,-1.511905 0.63747,-0.318739 0.87443,-1.193168 1.5119,-1.511904 0.45077,-0.225382 1.02298,0.12223 1.51191,0 3.65045,-0.912614 -0.0375,-0.359243 2.26785,-1.511906 0.71272,-0.356359 1.52801,-0.460012 2.26786,-0.755951 0.52315,-0.209262 0.96527,-0.619295 1.51191,-0.755952 0.58977,-0.147444 3.65338,0 4.53571,0 1.25992,-0.251984 2.54433,-0.402971 3.77976,-0.755953 0.54178,-0.154792 0.99401,-0.533997 1.51191,-0.755952 1.24726,-0.534539 2.5325,-0.977366 3.77976,-1.511905 0.5179,-0.221955 0.97737,-0.577773 1.51191,-0.755952 0.98564,-0.328547 2.03816,-0.427406 3.02381,-0.755953 0.53453,-0.178179 1.00793,-0.503968 1.5119,-0.755952 1.00794,-0.503968 2.01587,-1.007937 3.02381,-1.511905 1.00794,-0.503968 2.01587,-1.007936 3.02381,-1.511905 0.50397,-0.251984 1.04308,-0.443404 1.5119,-0.755952 0.59302,-0.395345 0.87443,-1.193167 1.51191,-1.511905 2.22462,-1.112311 -0.99528,1.751226 1.5119,-0.755952"
       id="path3731"
       inkscape:connector-curvature="0" />
    <path
       style="fill:#008000;stroke:#000000;stroke-width:0.26458332px;stroke-linecap:butt;stroke-linejoin:miter;stroke-opacity:1"
       d="m -10.583333,200.99404 c 1.0079363,-1.00793 2.0158729,-2.01587 3.0238092,-3.0238 0.5039682,-0.50397 1.0480735,-0.97077 1.5119048,-1.51191 1.0500426,-1.22505 1.79876,-2.72972 3.0238096,-3.77976 0.6050088,-0.51858 1.6388666,-0.26674 2.26785702,-0.75595 1.68775835,-1.3127 3.02380948,-3.02381 4.53571418,-4.53572 1.0079365,-1.00793 1.8682369,-2.18923 3.0238096,-3.02381 3.3998686,-2.45546 7.3084856,-4.18369 10.5833336,-6.80357 1.814097,-1.45128 2.755714,-3.79876 4.535714,-5.29167 6.06246,-5.08464 12.833746,-9.28155 18.898808,-14.36309 3.277883,-2.74633 5.786276,-6.3338 9.07143,-9.07143 4.298164,-3.5818 9.139438,-6.45942 13.607142,-9.82738 19.08533,-11.45138 34.609407,-27.42701 52.160711,-40.821428 6.71095,-5.121511 43.16415,-32.096988 57.45238,-42.333333 11.31087,-8.103307 22.69558,-16.103129 34.01786,-24.190476 4.5528,-3.252001 9.13118,-6.470407 13.60714,-9.82738 10.64412,-7.983086 21.10589,-16.2073897 31.75,-24.1904758 6.04762,-4.5357144 12.05252,-9.1289532 18.14285,-13.6071432 2.47809,-1.822108 5.14093,-3.391334 7.55954,-5.291666 4.64256,-3.647728 8.94665,-7.714473 13.60712,-11.339286 25.60863,-19.917809 15.88575,-10.462627 41.5774,-31.749999 1.92082,-1.591546 3.52776,-3.527777 5.29166,-5.291667 2.26785,-2.267857 4.53573,-4.535715 6.80358,-6.803572 1.51191,-1.511903 3.1669,-2.893137 4.5357,-4.535713 0.58163,-0.697962 0.96678,-1.541025 1.51191,-2.267857 0.21383,-0.285089 0.50397,-0.503968 0.75596,-0.755952 0.50395,-0.50397 0.91887,-1.11656 1.51191,-1.511906 0.20966,-0.139776 0.53057,0.112692 0.75594,0 1.39171,-0.695859 0.12018,-1.571998 1.51191,-2.267857 0.22537,-0.112691 0.51689,0.07968 0.75594,0 0.53454,-0.178178 0.97737,-0.577773 1.51191,-0.755952 0.23905,-0.07968 0.57777,0.178179 0.75597,0 0.39841,-0.398422 0.50395,-1.007938 0.75594,-1.511905"
       id="path3733"
       inkscape:connector-curvature="0" />
  </g>
</svg>
