<?xml version="1.0" encoding="UTF-8" standalone="no"?>
<!-- Created with Inkscape (http://www.inkscape.org/) -->

<svg
   xmlns:dc="http://purl.org/dc/elements/1.1/"
   xmlns:cc="http://creativecommons.org/ns#"
   xmlns:rdf="http://www.w3.org/1999/02/22-rdf-syntax-ns#"
   xmlns:svg="http://www.w3.org/2000/svg"
   xmlns="http://www.w3.org/2000/svg"
   xmlns:sodipodi="http://sodipodi.sourceforge.net/DTD/sodipodi-0.dtd"
   xmlns:inkscape="http://www.inkscape.org/namespaces/inkscape"
   width="316.27145mm"
   height="167.21346mm"
   viewBox="0 0 316.27145 167.21346"
   version="1.1"
   id="svg4824"
   sodipodi:docname="dixie2.svg"
   inkscape:version="0.92.5 (2060ec1f9f, 2020-04-08)">
  <defs
     id="defs4818" />
  <sodipodi:namedview
     id="base"
     pagecolor="#ffffff"
     bordercolor="#666666"
     borderopacity="1.0"
     inkscape:pageopacity="0.0"
     inkscape:pageshadow="2"
     inkscape:zoom="1"
     inkscape:cx="606.67835"
     inkscape:cy="365.99394"
     inkscape:document-units="mm"
     inkscape:current-layer="layer1"
     showgrid="false"
     inkscape:window-width="1848"
     inkscape:window-height="1016"
     inkscape:window-x="72"
     inkscape:window-y="27"
     inkscape:window-maximized="1"
     fit-margin-top="0"
     fit-margin-left="0"
     fit-margin-right="0"
     fit-margin-bottom="0" />
  <metadata
     id="metadata4821">
    <rdf:RDF>
      <cc:Work
         rdf:about="">
        <dc:format>image/svg+xml</dc:format>
        <dc:type
           rdf:resource="http://purl.org/dc/dcmitype/StillImage" />
        <dc:title></dc:title>
      </cc:Work>
    </rdf:RDF>
  </metadata>
  <g
     inkscape:label="Layer 1"
     inkscape:groupmode="layer"
     id="layer1"
     transform="translate(74.79198,69.710897)">
    <path
       style="fill:#000000;stroke-width:0.26458341"
       d="m 184.49968,96.446953 c -2.512,-0.87147 -3.85031,-1.15105 -7.67292,-1.60289 -5.50728,-0.65097 -10.74373,-1.78517 -13.5337,-2.93138 -1.50357,-0.61769 -2.41302,-1.2134 -3.53526,-2.31561 -1.50684,-1.47994 -4.75149,-6.11801 -4.9306,-7.04806 -0.1801,-0.93518 -7.94271,-5.39204 -13.1105,-7.5273 -8.28477,-3.42315 -12.65163,-5.76714 -16.08681,-8.63484 -1.29031,-1.07715 -3.09472,-2.24162 -4.62188,-2.98274 -2.45438,-1.19107 -2.56445,-1.21734 -5.42396,-1.29449 -3.64081,-0.0982 -4.05977,-0.18881 -4.40798,-0.95304 -0.2642,-0.57986 -0.46869,-0.62623 -3.49673,-0.7928 -1.76886,-0.0973 -4.6898,-0.36476 -6.49097,-0.59433 -4.90565,-0.62525 -10.82208,-0.2487 -19.34702,1.23131 -2.93905,0.51026 -3.8081,0.5519 -7.80521,0.37406 -2.47385,-0.11006 -7.35542,-0.21584 -10.84792,-0.23506 -5.96422,-0.0328 -6.44644,-0.0722 -7.9375,-0.64891 -1.48743,-0.57526 -2.12119,-0.62794 -10.05416,-0.83574 -9.75342,-0.25548 -10.29405,-0.30981 -13.49375,-1.35601 -1.69351,-0.55374 -3.46611,-0.88306 -6.13757,-1.1403 -2.591173,-0.24949 -4.143396,-0.53291 -5.004186,-0.91368 -1.645647,-0.72795 -4.327729,-1.33724 -5.886527,-1.33724 -1.435732,0 -5.7499407,-0.87644 -7.3057407,-1.48418 -0.70435,-0.27513 -1.42557,-0.35422 -2.187932,-0.2399 -1.489697,0.2234 -4.03742,1.39876 -4.03742,1.86262 0,0.20039 -0.15637702,0.45955 -0.34752002,0.57592 -0.476226,0.28995 -2.01719898,2.92197 -3.31346698,5.65947 -1.501423,3.17077 -5.29232,7.34314 -8.4917753,9.34632 -3.300106,2.06618 -4.222211,2.47699 -7.508484,3.34513 -6.43028,1.69868 -12.891087,2.23362 -15.886766,1.3154 -2.326685,-0.71317 -5.027371,-4.53101 -5.724384,-8.09233 -0.444686,-2.27208 -0.658726,-9.5571 -0.316855,-10.78449 0.279871,-1.00479 0.277836,-1.00892 -0.429876,-0.87177 -3.164912,0.61337 -17.113496,0.34477 -19.918647,-0.38357 -0.523224,-0.13585 -3.499788,-0.54116 -6.614583,-0.90068 -6.325906,-0.73016 -7.383057,-1.00501 -7.383057,-1.91949 0,-0.71664 0.0079,-0.71784 1.265269,-0.19227 0.541029,0.22615 3.532159,0.70276 6.646954,1.05914 3.114796,0.35638 6.09136,0.7588 6.614584,0.89426 1.91579,0.49599 8.925062,0.85266 13.519026,0.68792 4.538808,-0.16277 7.754549,-0.65343 8.863542,-1.35242 0.720077,-0.45386 4.5139,-1.70008 5.175485,-1.70008 0.293775,0 1.014786,-0.2452 1.602243,-0.5449 1.12078,-0.57178 2.104726,-0.59967 2.280827,-0.0647 0.116946,0.3553 -1.810564,1.66789 -2.449255,1.66789 -0.226971,0 -0.854414,0.22136 -1.39432,0.49192 -0.539906,0.27056 -1.874615,0.70671 -2.966022,0.96924 -3.707188,0.89171 -4.118745,1.66196 -3.884517,7.27009 0.08205,1.96454 0.285573,4.27964 0.452274,5.14469 0.398293,2.06685 2.094566,5.40314 3.273335,6.43811 1.85688,1.63036 4.892545,1.97092 10.213075,1.14573 9.363265,-1.45217 13.966899,-3.58863 18.5389153,-8.60353 1.921851,-2.10801 2.605561,-3.10415 3.796149,-5.53085 0.798682,-1.62788 1.874554,-3.59525 2.39083298,-4.37193 0.516279,-0.77669 0.938689,-1.51965 0.938689,-1.65101 0,-0.13138 0.800539,-0.60184 1.77897902,-1.04549 2.257671,-1.02367 4.42096,-1.27845 5.95649,-0.70151 1.685409,0.63325 5.9575697,1.50287 7.3831187,1.50287 1.55879,0 4.240885,0.6093 5.886535,1.33724 0.860787,0.38077 2.413,0.66417 5.004171,0.91367 2.67145,0.25723 4.44407,0.58656 6.13758,1.1403 3.19968,1.04621 3.74032,1.10054 13.49375,1.35602 7.89472,0.2068 8.5739,0.26279 10.05416,0.82895 1.48498,0.56794 1.99757,0.6093 7.9375,0.6405 3.4925,0.0183 8.13594,0.1275 10.31875,0.24258 3.49265,0.18413 4.3655,0.14027 7.27604,-0.36567 8.5995,-1.49481 15.21593,-1.89338 20.42029,-1.2301 1.79296,0.22851 4.72324,0.496 6.51175,0.59442 3.15417,0.17357 3.26735,0.20075 3.76893,0.90515 0.50845,0.71406 0.5714,0.72776 3.76394,0.81959 3.24112,0.0932 3.25125,0.0955 5.75607,1.31136 1.53046,0.74288 3.33487,1.90722 4.6259,2.98496 3.45556,2.88472 7.26023,4.93447 15.74873,8.48459 6.55034,2.73952 14.01689,7.14105 14.01689,8.26294 0,0.61501 3.34438,5.45723 4.65094,6.73396 2.33138,2.27814 7.94973,3.9408 16.78031,4.96588 3.61154,0.41924 5.12499,0.71982 6.87917,1.36622 4.01417,1.47921 7.65236,2.09911 12.31959,2.09911 3.6827,0 4.45478,-0.0836 7.3412,-0.79526 1.77411,-0.43738 4.11864,-1.22725 5.21005,-1.75523 1.66962,-0.80774 2.1813,-1.22272 3.22598,-2.61629 1.98459,-2.64743 2.65486,-4.51638 2.79649,-7.7978 0.0911,-2.11129 0.0114,-3.15917 -0.33174,-4.36563 -1.39266,-4.89517 -1.7137,-5.9406 -2.19368,-7.14375 -0.2903,-0.72761 -1.04164,-2.61102 -1.66966,-4.18537 -0.87735,-2.19939 -1.35916,-3.04441 -2.07994,-3.64794 -2.95767,-2.47657 -6.61651,-5.16266 -9.40475,-6.90438 -1.74625,-1.09083 -3.175,-2.15016 -3.175,-2.35406 0,-0.6401 3.12796,-0.76216 15.21447,-0.59368 12.28548,0.17127 12.82782,0.13719 18.38762,-1.15477 5.12355,-1.1906 9.12008,-3.73523 9.12638,-5.81087 0,-0.3157 -0.56753,-1.20867 -1.26334,-1.98438 -1.99501,-2.22415 -3.38955,-3.98891 -3.83254,-4.84997 -0.53491,-1.03972 -1.3776,-1.78826 -2.83988,-2.5225 -0.65484,-0.32881 -2.42281,-1.42438 -3.92879,-2.4346 -2.61668,-1.75525 -2.84565,-1.85311 -5.15938,-2.20494 -1.33167,-0.2025 -2.83713,-0.48958 -3.3455,-0.63796 -0.50837,-0.14839 -1.44367,-0.26979 -2.07848,-0.26979 -1.74623,0 -3.74558,-0.60453 -8.8002,-2.66085 -8.71541,-3.545596 -10.44501,-4.165536 -12.48418,-4.474638 -4.57764,-0.693888 -10.16562,-3.234748 -11.33195,-5.152649 -0.61061,-1.004044 -3.46089,-3.451355 -4.86215,-4.174726 -2.18637,-1.128678 -4.81752,-3.101101 -6.03007,-4.520408 -0.69,-0.807646 -1.64558,-1.710124 -2.12352,-2.005505 -0.47793,-0.2953808 -1.27363,-1.1075718 -1.76821,-1.8048658 -0.49458,-0.697299 -1.34033,-1.803596 -1.87943,-2.458439 -0.53911,-0.654844 -1.02141,-1.410447 -1.07178,-1.67912 -0.0524,-0.279649 -0.48748,-0.62493 -1.01761,-0.807622 -1.48563,-0.511969 -4.47174,-2.375826 -6.61459,-4.12865702 -1.0914,-0.89275898 -2.46062,-1.97986598 -3.0427,-2.41578798 -1.54895,-1.160008 -3.38758,-5.036098 -3.64662,-7.6875592 -0.0667,-0.682339 -0.35715,-1.694371 -0.64554,-2.248958 l -0.52434,-1.008338 -2.08967,0.0379 c -2.66364,0.04831 -9.95882,0.519832 -13.73133,0.887515 -1.60073,0.156012 -5.94651,0.39189 -9.6573,0.524174 -3.73135,0.133017 -7.63379,0.41224 -8.73125,0.624726 -3.76051,0.728118 -9.33303,1.021819 -14.1552,0.746059 -5.63498,-0.322244 -8.07943,-0.75017 -14.63876,-2.562669 -2.87637,-0.794809 -6.47434,-1.673635 -7.9955,-1.952945 -1.52116,-0.27931 -8.30215,-2.192632 -15.06887,-4.251823 -6.76672,-2.059194 -15.33921,-4.513006 -19.05,-5.452925 -6.29022,-1.593268 -12.28849,-3.291139 -15.08125,-4.268896 -0.65483,-0.229264 -2.26219,-0.566996 -3.57187,-0.750525 -1.30969,-0.183523 -4.167186,-0.649996 -6.349996,-1.036611 -5.280017,-0.935183 -15.0137277,-1.237684 -18.9250577,-0.588147 -1.37841102,0.228901 -3.696822,0.557397 -5.152028,0.729982 -2.810912,0.333375 -7.3946863,1.696398 -9.3598843,2.783237 -0.750641,0.415139 -1.583153,0.640318 -2.367304,0.640318 -0.740463,0 -2.596499,0.470506 -4.786153,1.213297 -4.492625,1.524016 -5.0502,1.80866 -5.0502,2.578159 0,0.331575 -0.381945,1.191717 -0.84876,1.911434 -1.108863,1.709571 -1.438981,2.575214 -2.315247,6.071071 -0.893932,3.566324 -1.598414,8.0126052 -1.598729,10.0902142 -1.32e-4,0.892106 -0.334909,2.788343 -0.787731,4.46187 -0.900895,3.329519 -1.061751,6.783279 -0.419364,9.004321 1.131729,3.9129228 1.541195,4.7134218 3.312887,6.4766078 0.951995,0.947423 2.488973,2.316644 3.415504,3.042709 0.926534,0.726064 1.875422,1.645195 2.108645,2.042509 0.754948,1.286137 0.376158,1.379326 -6.253351,1.538406 -4.296383,0.10309 -7.513195,0.344588 -11.298229,0.84822 -2.910417,0.38726 -7.970573,0.955008 -11.24479,1.261668 -7.073114,0.662472 -10.35869,1.404261 -14.250289,3.217281 -2.890516,1.34663 -3.53555,1.78419 -7.247109,4.916056 -2.28698,1.92979 -2.315104,1.94415 -2.315104,1.18224 0,-0.63873 0.352415,-1.06482 2.050521,-2.479186 3.52326,-2.93456 4.166795,-3.365651 6.982526,-4.677447 3.891599,-1.813023 7.177176,-2.554803 14.250288,-3.217272 3.274217,-0.30666 8.334373,-0.87766 11.24479,-1.268884 3.969441,-0.533577 6.679343,-0.731639 10.845266,-0.792662 3.054482,-0.04474 5.654571,-0.182317 5.777981,-0.305729 0.123412,-0.123412 -0.711941,-0.937144 -1.856335,-1.808295 -3.110939,-2.368161 -4.893448,-4.416044 -5.605868,-6.440461 -1.180912,-3.3556838 -1.355891,-4.2942138 -1.349816,-7.2399288 0.0049,-2.39705 0.146809,-3.43923402 0.793514,-5.829321 0.459367,-1.697715 0.787596,-3.567078 0.787731,-4.486365 5.29e-4,-2.884813 1.680342,-11.7613272 2.540772,-13.4252122 0.203433,-0.393398 0.36988,-0.953392 0.36988,-1.244428 0,-0.291036 0.159851,-0.624372 0.355227,-0.740743 0.542774,-0.323295 1.282234,-1.584302 1.471393,-2.509174 0.09327,-0.45602 0.471389,-1.054465 0.840277,-1.329878 1.085207,-0.810225 8.143375,-3.119408 9.534668,-3.119408 0.801116,0 1.626499,-0.22175 2.38334,-0.640318 1.965198,-1.086842 6.5489693,-2.449862 9.3598893,-2.783237 1.455211,-0.172585 3.77056398,-0.50056 5.145241,-0.728829 4.000331,-0.664268 14.7328517,-0.350602 19.9901727,0.584226 2.182818,0.388136 5.040322,0.855856 6.350002,1.039379 1.30969,0.183526 2.91702,0.521261 3.57188,0.750525 2.79274,0.977754 8.79102,2.675625 15.08125,4.268896 3.71077,0.939916 12.28327,3.393731 19.04999,5.452922 6.76672,2.059191 13.54771,3.972513 15.06887,4.251823 1.52116,0.27931 5.11913,1.158136 7.99549,1.952945 6.49083,1.793571 9.00539,2.239671 14.37418,2.550088 4.56039,0.263679 9.35049,-5.29e-4 13.36146,-0.736616 1.30663,-0.239834 5.0205,-0.506539 8.86354,-0.636524 3.63802,-0.123052 7.92427,-0.351792 9.525,-0.508312 1.60073,-0.156522 4.81542,-0.404302 7.14375,-0.550621 2.32833,-0.14632 5.11736,-0.350248 6.19784,-0.453171 l 1.9645,-0.187134 -2.45309,-2.306963 c -2.15557,-2.027156 -2.54723,-2.53828 -3.22922,-4.214114 -0.79081,-1.943248 -1.81533,-7.277024 -1.82213,-9.486215 -0.006,-1.93866 -0.22334,-2.353239 -1.59945,-3.050564 -0.69848,-0.353949 -1.34495,-0.764868 -1.43659,-0.913154 -0.0916,-0.148288 -0.39573,-0.269615 -0.67573,-0.269615 -0.33716,0 -0.73479,-0.424448 -1.17737,-1.256771 -0.36755,-0.691224 -0.81336,-1.461852 -0.99069,-1.712511 -0.25288,-0.357438 -0.25313,-0.525033 -0.001,-0.777015 0.40119,-0.401201 1.44707,0.498055 1.92709,1.656948 0.32379,0.781685 0.65033,1.017688 3.0748,2.222233 1.5353,0.762788 1.94093,1.503545 1.94102,3.544618 9e-5,2.16922 1.02021,7.551232 1.78901,9.438592 0.64856,1.592204 1.1043,2.180267 3.47088,4.478697 2.51741,2.444898 2.81797,2.65588 3.95769,2.778125 1.47147,0.157827 1.75725,0.875155 0.40113,1.006891 l -0.83227,0.08085 0.40559,0.813025 c 0.22307,0.447167 0.45996,1.363284 0.52642,2.035818 0.13602,1.3765452 0.81532,3.4027932 1.76451,5.2632952 1.17856,2.310069 8.76833,7.982297 11.395,8.516073 0.59977,0.12188 0.87091,0.373075 1.07443,0.995431 0.14974,0.457827 0.68552,1.343488 1.19064,1.968132 0.50511,0.624647 1.26441,1.614871 1.68736,2.200497 0.42293,0.585629 0.95871,1.167559 1.19062,1.293178 0.23191,0.125621 1.25508,1.0889428 2.27374,2.1407168 1.74561,1.802379 4.78783,4.113176 5.41511,4.113176 0.15662,0 0.73572,0.298418 1.28687,0.663154 1.39424,0.922668 11.00507,3.0411 13.79534,3.04079 5.04206,-5.29e-4 14.46784,-1.393939 18.7933,-2.778159 1.52797,-0.488971 3.19487,-0.969426 3.70417,-1.067676 1.95773,-0.377648 6.20403,-3.525478 7.7783,-5.7661118 2.07129,-2.948004 2.83157,-4.19381 3.32819,-5.453833 0.28427,-0.72119 1.10125,-2.478169 1.81557,-3.90439802 0.71427,-1.42622798 1.38692,-3.00985998 1.49482,-3.51918298 0.10787,-0.509323 0.59486,-1.644295 1.08228,-2.522162 1.69563,-3.053921 3.81984,-9.8556552 4.21153,-13.4851302 0.48535,-4.497784 1.80017,-11.718819 2.31243,-12.700002 0.3039,-0.582084 0.65024,-1.653646 0.7697,-2.38125 0.11946,-0.727602 0.34094,-1.858698 0.49215,-2.513542 0.4408,-1.908429 0.66363,-11.422213 0.28411,-12.131289 -0.17449,-0.326054 -0.42026,-2.045917 -0.5461,-3.821917 -0.27789,-3.920844 -0.89445,-7.133807 -1.59766,-8.325675 -0.28776,-0.487731 -0.52324,-1.09605 -0.52324,-1.351823 0,-0.263234 -0.37314,-0.644935 -0.85987,-0.879591 -0.47294,-0.228005 -2.31788,-1.44068 -4.09985,-2.694837 l -3.24007,-2.280284 h -2.13823 c -1.98146,0 -2.19109,0.05335 -2.85914,0.727604 -0.43161,0.435644 -1.07775,1.736191 -1.61022,3.241146 -0.48917,1.382448 -1.10808,2.955282 -1.37544,3.495188 -0.26734,0.539906 -0.48607,1.288145 -0.48607,1.662753 0,0.37461 -0.52498,2.016461 -1.16662,3.648562 -1.12731,2.867483 -2.39538,7.040226 -3.16598,10.417969 l -0.37179,1.629681 1.42615,0.982227 c 1.35753,0.934953 1.78877,1.720789 1.15819,2.11051 -0.1474,0.09109 -0.76414,-0.259072 -1.37054,-0.778137 -1.45129,-1.24225 -1.68923,-1.218173 -1.5543,0.157287 0.0601,0.612727 -0.4545,0.863018 -0.94223,0.458253 -0.30372,-0.252076 -0.36565,-0.618522 -0.24289,-1.437209 0.20421,-1.36167 0.0578,-1.484825 -2.46785,-2.076077 -1.07304,-0.251198 -2.87776,-0.794961 -4.01052,-1.208368 -1.13276,-0.413405 -2.57654,-0.834998 -3.20839,-0.936876 -0.63188,-0.101875 -2.149,-0.533879 -3.37143,-0.960006 -1.22243,-0.42613 -3.02929,-0.889192 -4.01526,-1.029028 -0.98597,-0.139838 -2.72426,-0.580602 -3.86284,-0.979479 -2.01213,-0.704904 -2.2333,-0.725399 -7.891,-0.731343 -7.01167,-0.0074 -7.78437,0.176341 -12.8323,3.05086 -1.81901,1.035825 -4.4979,2.483837 -5.95311,3.217802 -1.45521,0.733965 -3.15285,1.682636 -3.77255,2.108154 -0.61968,0.425522 -1.24475,0.70071 -1.38906,0.611529 -0.91268,-0.56407 0.42784,-1.657337 4.63244,-3.778016 1.45521,-0.733966 4.13412,-2.181977 5.95313,-3.217803 5.11571,-2.913129 5.74983,-3.057969 13.36145,-3.051974 6.23928,0.0049 6.3861,0.01767 8.42016,0.731345 1.13859,0.399487 2.87687,0.840754 3.86284,0.980591 0.98597,0.139835 2.79284,0.602898 4.01527,1.029028 1.22242,0.426128 2.73954,0.858131 3.37142,0.960007 0.63185,0.101877 2.0606,0.517517 3.175,0.923648 1.11437,0.406129 2.85959,0.935097 3.87824,1.175487 1.01864,0.240391 2.03917,0.538345 2.2678,0.662126 0.34398,0.186209 0.47275,-0.05111 0.74623,-1.375047 0.55689,-2.696227 2.10449,-7.758051 3.21109,-10.502759 0.578,-1.433639 1.05092,-2.920852 1.05092,-3.304915 0,-0.384067 0.21873,-1.140042 0.48607,-1.679949 0.26736,-0.539906 0.88452,-2.11274 1.37154,-3.495188 0.65019,-1.84572 1.14546,-2.777154 1.86405,-3.505729 l 0.97864,-0.992187 h 2.69375 2.69375 l 2.56291,1.828867 c 1.40959,1.005877 3.33679,2.298795 4.28268,2.87315 1.1658,0.707895 1.76241,1.24805 1.85213,1.676863 0.0728,0.347919 0.34208,1.016299 0.59841,1.485289 0.64783,1.185336 1.25854,4.419327 1.50212,7.954274 0.14795,2.147367 0.31763,3.076358 0.60404,3.307292 0.34502,0.278202 0.37026,1.134795 0.18884,6.406559 -0.1152,3.346977 -0.35105,6.740258 -0.52417,7.540623 -0.17309,0.800364 -0.39979,1.990989 -0.50374,2.645833 -0.10398,0.654844 -0.43834,1.666875 -0.74306,2.248958 -0.51392,0.981782 -1.82718,8.18954 -2.31391,12.700003 -0.39166,3.629475 -2.5159,10.4312082 -4.2115,13.4851302 -0.48742,0.877866 -0.97444,2.012839 -1.08231,2.522162 -0.10787,0.509323 -0.78052,2.09295398 -1.49482,3.51918298 -0.71429,1.42622802 -1.53127,3.18320702 -1.81554,3.90439802 -0.51234,1.299781 -1.37258,2.699525 -3.42784,5.577652 -1.73339,2.4273478 -6.19704,5.7835718 -8.20782,6.1714588 -0.50932,0.09825 -2.1762,0.578705 -3.70417,1.067676 -4.53559,1.451454 -13.76021,2.777675 -19.32368,2.778159 -1.90797,1.7e-4 -3.54518,-0.225427 -6.71901,-0.925819 -2.308,-0.509323 -4.2428,-0.926042 -4.29958,-0.926042 -0.0568,0 0.31194,0.364519 0.81937,0.810046 0.50742,0.445524 0.99234,1.029795 1.07758,1.298382 0.45327,1.428136 6.6159,4.128849 10.90504,4.779007 2.03917,0.309102 3.76877,0.929042 12.48417,4.474639 5.05463,2.056317 7.05398,2.660847 8.80021,2.660847 0.63481,0 1.57011,0.1214 2.07848,0.26979 0.50837,0.14838 2.01383,0.43546 3.3455,0.63795 2.31428,0.35192 2.5422,0.44937 5.16231,2.20728 1.50765,1.01151 3.39466,2.1665 4.19341,2.56664 1.50037,0.75165 2.34019,1.54689 3.08086,2.9173 0.47268,0.87458 1.90918,2.68267 3.85318,4.84996 1.07013,1.19304 1.26508,1.57557 1.26508,2.48231 0,3.54657 -5.24166,6.39136 -14.55208,7.89784 -1.45759,0.23584 -5.10998,0.27833 -13.75834,0.16005 -6.47567,-0.0886 -11.99755,-0.0683 -12.27082,0.0449 -0.41039,0.17013 -0.15705,0.41053 1.45521,1.38093 1.07363,0.64622 2.84504,1.89037 3.93645,2.76479 1.0914,0.87441 2.46456,1.91465 3.05144,2.31164 2.53669,1.71592 2.74653,2.06665 5.73905,9.59295 0.47865,1.2039 0.83092,2.35249 2.19085,7.14375 0.35195,1.23992 0.42569,2.31162 0.33682,4.89479 -0.13441,3.90675 -0.67019,5.46228 -2.92635,8.49623 -1.14937,1.5456 -1.69029,2.01511 -3.23244,2.80571 -3.46194,1.7748 -4.50588,1.91781 -14.02292,1.92106 l -8.46666,0.003 -3.04271,-1.05558 z M 132.93015,-39.616935 c -0.13399,-0.352422 -0.73004,-1.20278 -1.32455,-1.88968 -0.5945,-0.686901 -1.08092,-1.36339 -1.08092,-1.503313 0,-0.139922 -0.50596,-0.803309 -1.12436,-1.474195 -1.05453,-1.144029 -2.0003,-3.108798 -2.59116,-5.382969 -1.06942,-4.116033 1.17733,-10.255414 4.22149,-11.53549 1.95094,-0.820377 5.87714,-1.429094 9.21759,-1.429094 h 3.28926 l 2.29098,1.188337 c 2.87679,1.492191 4.43235,2.8243 5.95065,5.095856 0.65641,0.982081 2.32945,3.392943 3.71786,5.357474 2.70611,3.829016 4.69976,7.740014 4.20018,8.239599 -0.46709,0.467088 -0.83254,0.03471 -1.89673,-2.244101 -0.55454,-1.187471 -2.10582,-3.706852 -3.44729,-5.598623 -1.34147,-1.891771 -2.98176,-4.251743 -3.64509,-5.244386 -1.35156,-2.022543 -2.98662,-3.365087 -5.82313,-4.781351 -1.82637,-0.911908 -2.03393,-0.954471 -4.65421,-0.954471 -2.93616,0 -7.16704,0.730726 -8.8679,1.531596 -2.35731,1.109975 -4.3283,6.543217 -3.52361,9.713195 0.60091,2.36722 1.53974,4.343922 2.61944,5.515261 0.6184,0.670886 1.12436,1.331792 1.12436,1.468681 0,0.13689 0.54093,0.882601 1.20205,1.657131 0.83983,0.983885 1.17868,1.602142 1.12448,2.05172 -0.10552,0.875397 -0.68089,1.003948 -0.97939,0.218823 z"
       id="path4992"
       inkscape:connector-curvature="0" />
    <path
       style="fill:none;stroke:#000000;stroke-width:0.26458332px;stroke-linecap:butt;stroke-linejoin:miter;stroke-opacity:1"
       d="m -73.99823,31.35672 c 0,6.261807 0,12.523613 0,18.785417 0,0.705556 0,1.411113 0,2.116666 0,0.229286 -0.05109,0.905069 0,1.058334 0.06236,0.187089 0.20222,0.34208 0.264583,0.529166 0.05578,0.167339 0,0.35278 0,0.529167 0,0.35278 0,0.705557 0,1.058333 0,0.0882 0.08819,0.264584 0,0.264584 -0.08819,0 0,-0.176387 0,-0.264584 0,-0.08819 0,-0.176387 0,-0.264583 0,-0.705554 0,-1.41111 0,-2.116667"
       id="path5064"
       inkscape:connector-curvature="0" />
    <path
       style="fill:#000000;stroke:#44aa00"
       d="m 1003.0247,628.86649 c -4.70463,-0.73354 -13.47963,-2.91018 -19.50008,-4.83697 -12.16396,-3.89296 -16.11077,-4.68987 -38.26576,-7.72636 -31.65157,-4.33807 -49.39393,-10.56752 -57.41819,-20.1599 -6.50971,-7.78185 -11.33519,-14.73462 -14.23942,-20.51682 -2.16089,-4.30224 -4.02493,-6.10954 -11.36548,-11.01955 -10.69193,-7.15172 -29.42756,-16.74431 -50.15742,-25.68047 -23.05574,-9.93879 -37.59587,-17.88223 -50.72978,-27.71425 -18.97425,-14.20408 -28.0698,-17.79897 -45.06797,-17.81246 -6.564,-0.005 -7.53914,-0.26626 -9.69865,-2.59641 -2.26059,-2.43922 -3.32435,-2.66971 -18.20225,-3.94412 -8.69074,-0.74442 -21.20135,-1.84855 -27.80135,-2.45361 -16.86323,-1.54595 -35.89793,-0.25058 -66.5,4.52553 -15.31827,2.39074 -15.96312,2.40876 -55,1.53673 -32.89377,-0.7348 -40.25261,-1.16169 -44,-2.55247 -3.15752,-1.17186 -10.16826,-1.94756 -23.5,-2.60016 -57.1756,-2.79879 -56.44713,-2.73573 -67.05511,-5.80485 -5.53031,-1.60005 -16.00022,-3.63399 -23.26648,-4.51988 -7.26625,-0.88589 -15.79146,-2.47898 -18.94489,-3.54019 -9.52879,-3.2067 -13.31224,-4.03493 -23.23352,-5.08607 -5.225,-0.55357 -15.01147,-2.38586 -21.7477,-4.07175 -13.8101,-3.45627 -17.27678,-3.24357 -28.3852,1.74159 -5.38241,2.41548 -6.05648,3.12236 -10.69832,11.21889 -2.72468,4.75254 -6.52641,11.7912 -8.44829,15.64146 -8.73149,17.49257 -26.30449,34.56088 -43.33903,42.09436 -14.56652,6.44201 -39.99809,11.67585 -57.40411,11.81382 -10.46506,0.083 -11.97949,-0.14173 -16.5,-2.44796 -3.59779,-1.8355 -5.97026,-4.05284 -8.55968,-8 -8.05023,-12.2713 -10.24972,-22.18869 -9.7434,-43.93251 0.40825,-17.53211 0.0388,-17.079 18.82573,-23.08939 7.425,-2.37543 15.1875,-5.36408 17.25,-6.64143 6.53329,-4.04621 3.98861,-7.45793 -3.53634,-4.74127 -2.31751,0.83668 -7.4528,2.37944 -11.41174,3.42837 -3.95894,1.04893 -10.63531,3.28348 -14.83638,4.96567 -4.20107,1.68219 -10.86193,3.60403 -14.80192,4.27075 -9.04724,1.53096 -54.501646,1.44675 -64.16362,-0.11887 -3.85,-0.62385 -15.332173,-2.22051 -25.51594,-3.54812 -10.183768,-1.32761 -21.546268,-2.94155 -25.250001,-3.58652 l -6.7340592,-1.17269 v -37.88727 -37.88728 l 9.6316582,-7.97683 c 14.848947,-12.29773 31.271695,-19.95066 50.368342,-23.47142 4.675,-0.86191 20.65,-2.90175 35.5,-4.53297 14.85,-1.63123 32.85,-3.65421 40,-4.49552 7.15,-0.8413 22.9,-1.93515 35,-2.43076 12.1,-0.49561 22.7875,-1.22185 23.75,-1.61386 3.01314,-1.22722 1.93631,-4.0723 -3.45289,-9.12284 -24.15153,-22.63384 -23.10583,-21.32117 -27.41676,-34.41668 -3.55561,-10.80102 -3.70429,-23.0044 -0.44422,-36.45926 1.19937,-4.95 2.83707,-15.17529 3.63934,-22.72287 2.60898,-24.54481 7.44774,-44.45747 13.48159,-55.48002 2.16862,-3.9616 3.94294,-7.82935 3.94294,-8.59501 0,-0.76567 0.809,-2.12425 1.79777,-3.01908 2.37099,-2.14572 27.01766,-10.31933 34.88239,-11.5681 3.39909,-0.53971 9.24909,-2.31808 13,-3.95194 6.12655,-2.66865 16.27525,-5.93549 23.46418,-7.55305 9.0624,-2.0391 32.43393,-4.83508 44.35566,-5.30634 28.44177,-1.12431 74.68268,4.72871 100.82369,12.76193 7.24697,2.22701 24.20131,6.97686 37.67631,10.55522 28.83302,7.65676 48.03456,13.11819 87.5,24.88733 37.92919,11.31101 104.63117,28.05962 120,30.13153 14.17232,1.9106 46.91906,2.18229 59.25,0.49157 18.79149,-2.57653 24.78371,-3.10993 46.25,-4.11695 12.375,-0.58054 31.725,-1.78259 43,-2.67122 11.275,-0.88863 27.68042,-1.66684 36.45648,-1.72935 l 15.95648,-0.11365 1.72443,4.5 c 0.94844,2.475 2.43039,7.60926 3.29322,11.40945 2.07685,9.14722 5.48892,16.38884 10.15608,21.55483 5.35977,5.93262 25.46843,20.81231 34.41331,25.46463 4.125,2.14544 7.66709,4.32789 7.87131,4.84987 1.49201,3.81359 15.77855,20.5633 24.34493,28.5423 9.85264,9.17706 13.10102,11.64046 27.28376,20.69056 3.3,2.10575 9.68383,7.55034 14.18629,12.09908 11.63819,11.75783 20.3262,15.73792 49.65246,22.74641 3.7613,0.89888 18.1613,6.0919 32,11.54002 28.2702,11.12962 37.2229,14.10039 42.5166,14.1083 5.2825,0.008 28.5689,4.64535 31.851,6.34308 4.0661,2.10324 23.1244,14.00785 27.7813,17.35326 2.1931,1.57555 5.8684,5.54968 8.1672,8.83142 2.2988,3.28173 6.9275,9.11679 10.286,12.96679 3.3585,3.85 6.39,8.09382 6.7366,9.43071 2.0851,8.04282 -13.7065,17.77465 -38.6774,23.83554 -10.4155,2.52803 -10.9438,2.5533 -65.668,3.14114 -30.3424,0.32594 -55.494,0.91924 -55.8925,1.31844 -1.2747,1.27699 1.6524,3.75128 15.5089,13.10991 16.0574,10.84512 32.3019,23.59037 34.6662,27.19884 3.2172,4.91006 12.4995,29.02412 16.5389,42.96542 3.9235,13.54139 4.0415,14.37672 3.6028,25.5 -0.3276,8.30695 -1.0136,12.92988 -2.4708,16.64983 -2.9055,7.41756 -9.8942,16.90248 -14.8942,20.21437 -5.0591,3.35099 -20.6046,8.69899 -31.1527,10.71717 -9.2065,1.76148 -31.6592,1.70506 -43.2923,-0.1088 z"
       id="path5066"
       inkscape:connector-curvature="0"
       transform="matrix(0.26458333,0,0,0.26458333,-74.79198,-69.710897)" />
    <path
       style="fill:none;stroke:#000000;stroke-width:0.26458332px;stroke-linecap:butt;stroke-linejoin:miter;stroke-opacity:1"
       d="m 186.35177,-27.645362 c -0.0882,-0.352777 -0.21948,-0.697505 -0.26459,-1.058334 -0.0437,-0.350051 0,-0.705553 0,-1.058333 0,-0.08819 0.0328,-0.182695 0,-0.264583 -0.5686,-1.421519 -0.52916,-0.600342 -0.52916,-1.322917 0,-1.5875 0,-3.175 0,-4.7625 0,-0.529166 0,-1.058333 0,-1.5875 0,-0.176387 0.0428,-0.358042 0,-0.529166 -0.0676,-0.270569 -0.19694,-0.523182 -0.26459,-0.79375 -0.0428,-0.171122 0,-0.352777 0,-0.529167 0,-0.529167 0,-1.058333 0,-1.5875 0,-0.176387 0.0558,-0.361828 0,-0.529167 -0.0624,-0.187087 -0.20222,-0.342077 -0.26458,-0.529166 -0.0279,-0.08367 0.0394,-0.185698 0,-0.264584 -0.0558,-0.111556 -0.1954,-0.160803 -0.26458,-0.264583 -0.1094,-0.164087 -0.17639,-0.352777 -0.26459,-0.529166 -0.0882,-0.176389 -0.21675,-0.337846 -0.26458,-0.529166 -0.0491,-0.196391 0.0812,-0.977121 0,-1.058334 -0.0624,-0.06236 -0.20222,0.06236 -0.26458,0 -0.0624,-0.06236 0.0279,-0.180915 0,-0.264583 -0.63883,-1.916487 0.0763,0.417144 -0.52917,-0.79375 -0.0789,-0.157767 0.12473,-0.404441 0,-0.529167 -0.13945,-0.139447 -0.38972,-0.125135 -0.52917,-0.264583 -0.0624,-0.06236 0.0489,-0.191201 0,-0.264583 -0.13837,-0.207557 -0.35277,-0.352778 -0.52916,-0.529167 -0.0882,-0.08819 -0.17639,-0.176389 -0.26459,-0.264583 -0.0882,-0.08819 -0.15302,-0.208805 -0.26458,-0.264584 -0.1049,-0.05245 -0.73966,0.05409 -0.79375,0 -0.13945,-0.139447 -0.12513,-0.389719 -0.26458,-0.529166 -0.12473,-0.124726 -0.40444,0.124725 -0.52917,0 -0.0624,-0.06236 0.0624,-0.202221 0,-0.264584 -0.0624,-0.06236 -0.20222,0.06236 -0.26458,0 -0.12473,-0.124725 0.12472,-0.404441 0,-0.529166 -0.0624,-0.06236 -0.20222,0.06236 -0.26459,0 -0.009,-0.0085 0,-0.729582 0,-0.79375"
       id="path5068"
       inkscape:connector-curvature="0" />
    <path
       style="fill:none;stroke:#000000;stroke-width:0.26458332px;stroke-linecap:butt;stroke-linejoin:miter;stroke-opacity:1"
       d="m 186.35177,-27.645362 c 0.29251,0.390019 0.87361,1.033351 1.05833,1.5875 0.0279,0.08367 -0.0624,0.202221 0,0.264583 0.35278,0.35278 0.25388,-0.561266 0.52917,0.264583 0.0558,0.167339 -0.0558,0.361831 0,0.529167 0.0394,0.118327 0.2088,0.153027 0.26458,0.264583 0.14111,0.282224 -0.14111,0.246947 0,0.529167 0.0558,0.111559 0.2088,0.153027 0.26458,0.264583 0.0394,0.07889 -0.0624,0.202221 0,0.264584 0.0624,0.06236 0.20222,-0.06236 0.26459,0 0.0624,0.06236 -0.0489,0.191201 0,0.264583 0.17428,0.261419 1.02789,1.02789 1.32291,1.322917 0.97015,0.970139 1.94027,1.940279 2.91042,2.910416 0.26458,0.264584 0.52917,0.529167 0.79375,0.79375 0.0882,0.0882 0.20881,0.153027 0.26458,0.264584 0.0395,0.07888 -0.0624,0.202221 0,0.264583 0.0624,0.06236 0.18571,-0.03944 0.26459,0 0.11154,0.05578 0.17639,0.17639 0.26458,0.264583 0.0882,0.0882 0.20881,0.153027 0.26458,0.264584 0.0394,0.07888 0.0882,0.264583 0,0.264583 -0.0882,0 0,-0.176387 0,-0.264583 0,-0.176387 0,-0.352777 0,-0.529167 0,-0.733719 -0.0395,0.422352 0.26459,-0.79375 0.0428,-0.171122 -0.0428,-0.358042 0,-0.529167 0.0957,-0.38264 0.40444,-0.684154 0.52916,-1.058333 0.0279,-0.08367 -0.0279,-0.180914 0,-0.264583 0.0624,-0.187087 0.20222,-0.342077 0.26459,-0.529167 0.0554,-0.166066 0,-0.845333 0,-1.058333 0,-0.617361 0,-1.234721 0,-1.852084 0,-0.264583 0,-1.058333 0,-1.322916 0,-0.264584 0.0519,-0.534305 0,-0.79375 -0.0713,-0.356574 -0.19328,-0.70176 -0.26459,-1.058334 -0.0172,-0.08648 0.0172,-0.178101 0,-0.264583 -0.0713,-0.356574 -0.19327,-0.70176 -0.26458,-1.058333 -0.0172,-0.08648 0.0172,-0.178102 0,-0.264584 -0.14264,-0.713144 -0.38653,-1.403519 -0.52917,-2.116666 -0.0581,-0.290425 0,-1.003454 0,-1.322917 0,-0.881943 0,-1.763887 0,-2.645833 0,-0.970137 0,-1.940277 0,-2.910417 0,-0.238485 -0.0555,-1.156388 0,-1.322916 0.0624,-0.187087 0.20222,-0.342078 0.26459,-0.529167 0.0558,-0.167336 0,-0.352777 0,-0.529167 0,-0.44097 0,-0.881943 0,-1.322916 0,-1.234721 0,-2.469444 0,-3.704166 0,-0.08819 0,-0.176389 0,-0.264583 0,-0.08819 -0.0624,-0.202221 0,-0.264584 0.0624,-0.06236 0.20222,0.06236 0.26458,0 0.0119,-0.01199 0,-1.198166 0,-1.322916 0,-0.176389 0,-0.352778 0,-0.529167 0,-0.08819 -0.0882,-0.264583 0,-0.264583 0.0791,0 -0.17418,0.877512 0.26458,0 0.0403,-0.08052 0,-0.674593 0,-0.79375 0,-0.529167 0,-1.058334 0,-1.5875"
       id="path5070"
       inkscape:connector-curvature="0" />
    <path
       style="fill:none;stroke:#000000;stroke-width:0.26458332px;stroke-linecap:butt;stroke-linejoin:miter;stroke-opacity:1"
       d="m 132.93015,-39.616935 c 1.31484,0.462746 2.65323,0.863367 3.94453,1.38824 0.24511,0.09963 -0.52916,0 -0.79375,0 -0.44097,0 -0.88194,0 -1.32291,0 -0.0882,0 -0.17639,0 -0.26459,0 -0.0882,0 -0.1857,0.03944 -0.26458,0 -0.11156,-0.05578 -0.15302,-0.208804 -0.26458,-0.264584 -0.23764,-0.118819 -1.21955,0.218641 -1.32292,-0.264583 -0.0632,-0.295421 0.50242,-0.645451 0.2888,-0.859073 -0.32098,-0.320977 -0.91091,-0.07372 -1.34713,-0.19926 -0.58904,-0.169522 -0.0793,-0.251172 -0.26459,-0.529167 -0.13837,-0.207555 -0.39079,-0.321609 -0.52916,-0.529167 -0.0263,-0.03942 0,-0.706861 0,-0.79375 0,-0.09716 -0.0106,-1.047684 0,-1.058333 0.0624,-0.06236 0.17639,0 0.26458,0 0.70556,0 1.41111,0 2.11667,0 0.12475,0 1.31092,-0.01199 1.32291,0 0.25764,0.257633 -0.45357,0.642575 -0.52916,0.79375 -0.0789,0.157768 0.12472,0.404442 0,0.529167 -0.0624,0.06236 -0.20222,-0.06236 -0.26459,0 -0.12472,0.124727 0.12473,0.404442 0,0.529166 -0.0624,0.06236 -0.18091,-0.02789 -0.26458,0 -0.18709,0.06236 -0.34208,0.202221 -0.52917,0.264584 -0.22389,0.07463 -0.56785,-0.133025 -0.52916,0 0.10582,0.363855 0.36892,0.662006 0.55338,0.99301"
       id="path5076"
       inkscape:connector-curvature="0" />
    <path
       style="fill:none;stroke:#000000;stroke-width:0.26458332px;stroke-linecap:butt;stroke-linejoin:miter;stroke-opacity:1"
       d="m 162.0101,-41.668279 c -1.18503,0.559605 -1.01866,-0.773914 -1.5875,-1.058333 -0.14353,-0.07177 -0.98594,0.0724 -1.05833,0 -0.0624,-0.06236 0.0624,-0.202218 0,-0.264583 -0.0624,-0.06236 -0.1912,0.04892 -0.26459,0 -0.61599,-0.41066 -0.52916,-0.507605 -0.52916,-1.058333"
       id="path5078"
       inkscape:connector-curvature="0" />
    <path
       style="fill:#000000;stroke:#44aa00"
       d="m 1001.5784,332.85877 c -25.73855,-4.82709 -41.76663,-10.39316 -51.00005,-17.71076 -14.2138,-11.2646 -29.88222,-28.03499 -35.1943,-37.66952 -1.98681,-3.60348 -2.70364,-4.14005 -8.3057,-6.21704 -5.45785,-2.02352 -22.75298,-14.02649 -30.61138,-21.24458 -7.74883,-7.11744 -11.25571,-13.12573 -13.9601,-23.91769 -0.85525,-3.41289 -2.14575,-8.29767 -2.86778,-10.85506 l -1.31278,-4.64979 2.87602,-0.57521 c 5.13724,-1.02744 2.97506,-3.49775 -4.46118,-5.09693 -4.2129,-0.90599 -21.07578,-17.61987 -24.13546,-23.92222 -3.32365,-6.84605 -6.25799,-19.73318 -7.85936,-34.51701 -1.48486,-13.70816 -1.41806,-13.59043 -10.78293,-19.0052 -3.92846,-2.27144 -7.39661,-5.26024 -9.39062,-8.0927 -3.23076,-4.58925 -6.16494,-6.14229 -7.50578,-3.97277 -0.58039,0.93908 -1.54853,0.95196 -4.26123,0.0567 -4.34499,-1.43398 -5.12972,-4.38153 -2.56842,-9.64729 1.01255,-2.0817 1.841,-3.92955 1.841,-4.10634 0,-0.17679 -2.24435,-0.32144 -4.98745,-0.32144 -4.64106,0 -5.16544,-0.26045 -7.54999,-3.749997 -1.4094,-2.0625 -4.06622,-5.86526 -5.90405,-8.450578 -4.52383,-6.363757 -7.55851,-15.753955 -7.55851,-23.388258 0,-12.378168 6.38378,-25.866646 14.01993,-29.623134 9.43824,-4.643004 36.08785,-7.302249 44.48975,-4.439433 6.15811,2.09828 18.08838,9.551885 22.13375,13.828381 7.9062,8.357892 34.35657,49.223888 34.35657,53.08112 0,1.696259 4.12964,4.741899 6.42963,4.741899 0.825,0 1.95158,0.84379 2.50352,1.87509 1.58645,2.96431 4.53353,3.09022 9.2248,0.39413 6.09897,-3.50511 28.10602,-15.3728 42.34205,-22.833695 6.6,-3.458965 13.575,-6.567124 15.5,-6.907021 3.10896,-0.548948 3.67834,-0.298698 5.09621,2.239835 0.87792,1.571805 3.13352,3.587326 5.01245,4.478935 4.87885,2.315167 10.89134,10.152446 10.89134,14.196859 0,0.89955 0.92198,3.442787 2.04885,5.651627 1.76128,3.45238 2.17151,6.92075 2.92269,24.71016 1.00962,23.90987 2.03151,31.11121 4.93935,34.80793 1.14901,1.46073 2.08911,3.27018 2.08911,4.02101 0,0.75083 0.41425,1.36514 0.92054,1.36514 0.5063,0 1.23956,1.45243 1.62945,3.22763 0.50529,2.30054 4.31103,6.89625 13.24976,16 6.8974,7.0248 12.9142,12.77237 13.3705,12.77237 0.4564,0 0.8298,-0.91124 0.8298,-2.02498 0,-1.11374 0.9,-4.58565 2,-7.71534 2.7325,-7.77451 2.6818,-21.17675 -0.1286,-34.02713 -1.978,-9.04435 -2.0828,-11.53568 -1.4813,-35.23255 0.6104,-24.049781 2.0519,-41.043595 3.4749,-40.964868 3.6217,0.200371 19.5023,4.512062 48.135,13.068937 22.0089,6.577385 20.453,5.746936 20.8015,11.102581 0.4705,7.23067 4.5859,9.16937 5.3715,2.53043 l 0.327,-2.76291 4.8885,3.48629 c 5.0534,3.60381 6.6115,3.74146 6.6115,0.58412 0,-1.7361 -4.8766,-6.75684 -8.5708,-8.824234 -1.5874,-0.88833 -1.5862,-1.429602 0.018,-8.83333 0.9401,-4.337857 4.824,-17.183643 8.6309,-28.546191 3.8068,-11.362549 6.9216,-21.152146 6.9216,-21.754662 0,-0.602516 2.3625,-7.234579 5.25,-14.737917 3.4399,-8.938844 6.325,-14.7984357 8.368,-16.995338 2.9966,-3.2222233 3.4072,-3.3529048 10.5349,-3.3529048 h 7.4168 l 10.6525,7.4211038 c 5.8588,4.081607 12.6235,8.57628 15.0327,9.988161 3.6305,2.127601 4.8195,3.639022 6.9456,8.828896 5.2659,12.854386 8.3194,37.748129 8.2504,67.261839 -0.051,21.958877 -1.152,30.520707 -5.5707,43.335547 -2.2186,6.43401 -5.9517,25.92777 -8.3619,43.66445 -2.5885,19.04855 -8.7277,39.9804 -15.9622,54.42381 -1.8116,3.61691 -3.6342,7.70119 -4.05,9.07619 -2.2743,7.51956 -15.6454,34.82686 -21.1346,43.16219 -10.8958,16.54538 -21.842,24.75584 -40.539,30.40727 -32.3062,9.765 -72.85,14.54923 -92.3325,10.89539 z"
       id="path5080"
       inkscape:connector-curvature="0"
       transform="matrix(0.26458333,0,0,0.26458333,-74.79198,-69.710897)" />
    <path
       style="fill:none;stroke:#000000;stroke-width:0.26458332px;stroke-linecap:butt;stroke-linejoin:miter;stroke-opacity:1"
       d="m -26.373231,-17.855779 c -0.628814,0.681493 -1.636691,0.826545 -2.38125,1.322917 -0.103777,0.06919 -0.153024,0.208806 -0.264583,0.264583 -0.07888,0.03944 -0.180914,-0.02789 -0.264583,0 -0.17639,0.0882 -0.352777,0.17639 -0.529167,0.264583 -0.08819,0 -0.180914,-0.02789 -0.264583,0 -0.18709,0.06237 -0.342077,0.202221 -0.529167,0.264584 -0.149278,0.04976 -0.61989,0 -0.79375,0 -0.529167,0 -1.058333,0 -1.5875,0 -0.358545,0 -1.677016,0.05836 -1.852083,0 -0.118324,-0.03944 -0.160806,-0.195398 -0.264583,-0.264584 -0.164087,-0.109392 -0.365081,-0.155191 -0.529167,-0.264583 -0.103778,-0.06918 -0.17639,-0.176387 -0.264583,-0.264583 -0.17639,-0.176387 -0.352777,-0.352777 -0.529167,-0.529167 -0.333798,-0.333798 -0.781873,-0.689718 -1.058333,-1.058333 -0.118325,-0.157766 -0.163121,-0.360061 -0.264584,-0.529167 -0.163605,-0.272672 -0.386958,-0.509331 -0.529166,-0.79375 -1.005552,-2.011103 -0.03909,-0.15635 -0.264584,-1.058333 -0.06764,-0.270569 -0.225142,-0.517658 -0.264583,-0.79375 -0.04989,-0.349232 0,-0.705554 0,-1.058334 0,-0.529166 0,-1.058333 0,-1.5875 0,-0.61736 0,-1.23472 0,-1.852083 0,-0.176387 -0.03459,-0.356203 0,-0.529167 0.0547,-0.273478 0.196942,-0.523181 0.264583,-0.79375 0.02138,-0.08556 -0.02789,-0.180914 0,-0.264583 0.06236,-0.187087 0.202221,-0.342077 0.264584,-0.529167 0.02789,-0.08367 -0.02789,-0.180914 0,-0.264583 0.06236,-0.187087 0.176389,-0.352777 0.264583,-0.529167 0.08819,-0.176387 0.146259,-0.371398 0.264583,-0.529166 0.149672,-0.19956 0.352777,-0.352777 0.529167,-0.529167 0.08819,-0.08819 0.208804,-0.153024 0.264583,-0.264583 0.234186,-0.468371 -0.393552,-0.09041 0.264584,-0.529167 0.133241,-0.582919 0.544298,-0.139856 0.79375,-0.264583 0.111558,-0.05578 0.153024,-0.208804 0.264583,-0.264584 0.157766,-0.07888 0.404442,0.124728 0.529167,0 0.06236,-0.06236 -0.07888,-0.225141 0,-0.264583 0.08749,-0.04374 1.11929,0 1.322916,0 0.08819,0 0.202221,0.06236 0.264583,0 0.177623,-0.17762 0.351544,-0.88071 0.529167,-1.058333 0.06236,-0.06236 0.180914,0.02789 0.264583,0 0.18709,-0.06236 0.342078,-0.202219 0.529167,-0.264583 0.127196,-0.0424 1.81319,0 1.852083,0 0.79375,0 1.5875,0 2.38125,0 0.104593,0 1.209919,-0.0565 1.322917,0 0.3175,0.15875 0.47625,0.635 0.79375,0.79375 0.07888,0.03944 0.202221,-0.06236 0.264583,0 0.06236,0.06236 -0.03944,0.1857 0,0.264583 0.05578,0.111559 0.208804,0.153027 0.264584,0.264583 0.03944,0.07889 -0.06236,0.202221 0,0.264583 0.139448,0.139449 0.389718,0.125138 0.529166,0.264584 0.06236,0.06236 -0.03944,0.1857 0,0.264583 0.05578,0.111559 0.208804,0.153027 0.264584,0.264583 0.03944,0.07889 -0.03944,0.185701 0,0.264584 0.05578,0.111559 0.208804,0.153027 0.264583,0.264583 0.03944,0.07889 -0.03944,0.185701 0,0.264583 0.111559,0.223118 0.417608,0.306052 0.529167,0.529167 0.03944,0.07889 -0.03944,0.185701 0,0.264583 0.05578,0.111559 0.208804,0.153028 0.264583,0.264584 0.03421,0.06841 0,1.399963 0,1.5875"
       id="path5101"
       inkscape:connector-curvature="0" />
    <path
       style="fill:#000000;stroke:#44aa00"
       d="m 147.24862,199.82685 c -2.38134,-2.04889 -5.50441,-5.57198 -6.94015,-7.82909 -2.33834,-3.67609 -2.65514,-5.31638 -3.03937,-15.73723 -0.33275,-9.02464 -0.0594,-12.74597 1.21896,-16.59477 1.77997,-5.35899 5.81841,-11.49622 7.83788,-11.91124 0.68882,-0.14156 3.05241,-0.55364 5.25241,-0.91574 2.32621,-0.38286 4.8369,-1.62896 6,-2.97789 1.82982,-2.12217 2.91445,-2.3414 12.74684,-2.57634 12.7917,-0.30566 13.52786,0.10916 20.03144,11.28744 3.82968,6.58243 3.61293,9.30519 -0.9117,11.45227 -2.8219,1.33908 -4.18063,2.96884 -6.08342,7.29692 -1.34751,3.06501 -3.29958,6.48803 -4.33794,7.60671 -1.03837,1.11868 -3.26624,6.51159 -4.95083,11.98424 -1.68459,5.47266 -3.51946,10.40738 -4.07749,10.96604 -0.55803,0.55866 -4.93012,1.16384 -9.71575,1.34484 l -8.70115,0.32909 z"
       id="path5103"
       inkscape:connector-curvature="0"
       transform="matrix(0.26458333,0,0,0.26458333,-74.79198,-69.710897)" />
  </g>
</svg>
